<svg width="30" height="30" viewBox="0 0 30 30" fill="none" xmlns="http://www.w3.org/2000/svg">
<g id="check-all">
<path id="Vector" d="M16.819 9.31875C17.0831 9.0673 17.4346 8.92828 17.7993 8.93104C18.1639 8.9338 18.5133 9.07812 18.7736 9.33354C19.0339 9.58897 19.1847 9.93552 19.1944 10.3001C19.204 10.6646 19.0717 11.0187 18.8252 11.2875L11.344 20.6438C11.2153 20.7823 11.0601 20.8935 10.8875 20.9707C10.7149 21.0479 10.5285 21.0895 10.3395 21.093C10.1504 21.0965 9.96262 21.0618 9.78728 20.9911C9.61194 20.9203 9.45267 20.815 9.31898 20.6813L4.35773 15.72C4.21957 15.5913 4.10875 15.436 4.03189 15.2635C3.95503 15.091 3.91371 14.9048 3.91038 14.716C3.90704 14.5272 3.94178 14.3396 4.0125 14.1645C4.08323 13.9894 4.1885 13.8303 4.32204 13.6968C4.45557 13.5633 4.61464 13.458 4.78974 13.3873C4.96484 13.3165 5.1524 13.2818 5.34121 13.2851C5.53003 13.2885 5.71624 13.3298 5.88874 13.4067C6.06124 13.4835 6.21649 13.5943 6.34523 13.7325L10.2715 17.6569L16.7815 9.36C16.7932 9.34553 16.8057 9.33175 16.819 9.31875ZM15.094 18.9563L16.819 20.6813C16.9526 20.8147 17.1118 20.9198 17.287 20.9904C17.4621 21.0609 17.6497 21.0955 17.8385 21.092C18.0273 21.0885 18.2135 21.047 18.3859 20.97C18.5583 20.893 18.7135 20.782 18.8421 20.6438L26.3271 11.2875C26.4616 11.1548 26.5679 10.9963 26.6397 10.8215C26.7116 10.6468 26.7475 10.4593 26.7453 10.2704C26.7431 10.0815 26.7028 9.89491 26.6269 9.72188C26.551 9.54885 26.441 9.39289 26.3035 9.26331C26.166 9.13373 26.0038 9.0332 25.8265 8.96771C25.6493 8.90222 25.4607 8.87312 25.272 8.88214C25.0832 8.89117 24.8982 8.93814 24.7281 9.02024C24.5579 9.10234 24.406 9.2179 24.2815 9.36L17.7696 17.6569L16.8602 16.7456L15.0921 18.9563H15.094Z" fill="#3BAF77"/>
</g>
</svg>
