<svg width="775" height="46" viewBox="0 0 775 46" fill="none" xmlns="http://www.w3.org/2000/svg">
<g filter="url(#filter0_i_42_1229)">
<rect width="775" height="46" rx="4" fill="white"/>
<g clip-path="url(#clip0_42_1229)">
<rect width="698" height="30" transform="translate(16 8)" fill="white" fill-opacity="0.01"/>
<path d="M15.8926 34.7598C15.5671 34.7598 15.2806 34.737 15.0332 34.6914C14.7858 34.6458 14.5742 34.584 14.3984 34.5059V33.0898C14.6068 33.1549 14.8314 33.2038 15.0723 33.2363C15.3132 33.2754 15.5736 33.2949 15.8535 33.2949C16.2181 33.2949 16.5534 33.2233 16.8594 33.0801C17.1654 32.9368 17.4095 32.6927 17.5918 32.3477C17.7741 32.0026 17.8652 31.5273 17.8652 30.9219V16.7227H19.5352V30.7949C19.5352 31.6868 19.3854 32.4258 19.0859 33.0117C18.793 33.5977 18.373 34.0339 17.8262 34.3203C17.2858 34.6133 16.6413 34.7598 15.8926 34.7598ZM32.3086 25.6289C32.3086 26.5078 32.1947 27.2923 31.9668 27.9824C31.7389 28.6725 31.4102 29.2552 30.9805 29.7305C30.5508 30.2057 30.0299 30.5703 29.418 30.8242C28.8125 31.0716 28.1257 31.1953 27.3574 31.1953C26.6413 31.1953 25.9837 31.0716 25.3848 30.8242C24.7923 30.5703 24.278 30.2057 23.8418 29.7305C23.4121 29.2552 23.0768 28.6725 22.8359 27.9824C22.6016 27.2923 22.4844 26.5078 22.4844 25.6289C22.4844 24.457 22.6829 23.4609 23.0801 22.6406C23.4772 21.8138 24.0436 21.1855 24.7793 20.7559C25.5215 20.3197 26.4036 20.1016 27.4258 20.1016C28.4023 20.1016 29.2552 20.3197 29.9844 20.7559C30.7201 21.1921 31.2897 21.8236 31.6934 22.6504C32.1035 23.4707 32.3086 24.4635 32.3086 25.6289ZM24.1641 25.6289C24.1641 26.4883 24.278 27.2337 24.5059 27.8652C24.7337 28.4967 25.0853 28.985 25.5605 29.3301C26.0358 29.6751 26.6478 29.8477 27.3965 29.8477C28.1387 29.8477 28.7474 29.6751 29.2227 29.3301C29.7044 28.985 30.0592 28.4967 30.2871 27.8652C30.515 27.2337 30.6289 26.4883 30.6289 25.6289C30.6289 24.776 30.515 24.0404 30.2871 23.4219C30.0592 22.7969 29.7077 22.3151 29.2324 21.9766C28.7572 21.638 28.1419 21.4688 27.3867 21.4688C26.2734 21.4688 25.4564 21.8366 24.9355 22.5723C24.4212 23.3079 24.1641 24.3268 24.1641 25.6289ZM36.7324 15.8047V20.3457C36.7324 20.6061 36.7259 20.8698 36.7129 21.1367C36.6999 21.3971 36.6771 21.638 36.6445 21.8594H36.752C36.9733 21.4818 37.2533 21.166 37.5918 20.9121C37.9368 20.6517 38.3275 20.4564 38.7637 20.3262C39.1999 20.1895 39.6621 20.1211 40.1504 20.1211C41.0098 20.1211 41.7259 20.2578 42.2988 20.5312C42.8783 20.8047 43.3112 21.2279 43.5977 21.8008C43.8906 22.3737 44.0371 23.1159 44.0371 24.0273V31H42.4355V24.1348C42.4355 23.2428 42.2305 22.5755 41.8203 22.1328C41.4167 21.6901 40.7949 21.4688 39.9551 21.4688C39.1608 21.4688 38.526 21.6217 38.0508 21.9277C37.582 22.2272 37.2435 22.6699 37.0352 23.2559C36.8333 23.8418 36.7324 24.5579 36.7324 25.4043V31H35.1113V15.8047H36.7324ZM52.4453 20.1016C53.7148 20.1016 54.6751 20.4141 55.3262 21.0391C55.9772 21.6576 56.3027 22.6536 56.3027 24.0273V31H54.7012V24.1348C54.7012 23.2428 54.4961 22.5755 54.0859 22.1328C53.6823 21.6901 53.0605 21.4688 52.2207 21.4688C51.0358 21.4688 50.2025 21.804 49.7207 22.4746C49.2389 23.1452 48.998 24.1185 48.998 25.3945V31H47.377V20.2969H48.6855L48.9297 21.8398H49.0176C49.2454 21.4622 49.5352 21.1465 49.8867 20.8926C50.2383 20.6322 50.6322 20.4368 51.0684 20.3066C51.5046 20.1699 51.9635 20.1016 52.4453 20.1016ZM76.4199 23.7246C76.4199 25.3327 76.127 26.6771 75.541 27.7578C74.9551 28.832 74.1055 29.6426 72.9922 30.1895C71.8854 30.7298 70.541 31 68.959 31H65.082V16.7227H69.3887C70.8405 16.7227 72.0905 16.9896 73.1387 17.5234C74.1868 18.0508 74.9941 18.8353 75.5605 19.877C76.1335 20.9121 76.4199 22.1947 76.4199 23.7246ZM74.6719 23.7832C74.6719 22.5007 74.457 21.4427 74.0273 20.6094C73.6042 19.776 72.9792 19.1576 72.1523 18.7539C71.332 18.3438 70.3262 18.1387 69.1348 18.1387H66.7422V29.5742H68.7637C70.7298 29.5742 72.2044 29.0892 73.1875 28.1191C74.1771 27.1491 74.6719 25.7038 74.6719 23.7832ZM88.5781 25.6289C88.5781 26.5078 88.4642 27.2923 88.2363 27.9824C88.0085 28.6725 87.6797 29.2552 87.25 29.7305C86.8203 30.2057 86.2995 30.5703 85.6875 30.8242C85.082 31.0716 84.3952 31.1953 83.627 31.1953C82.9108 31.1953 82.2533 31.0716 81.6543 30.8242C81.0618 30.5703 80.5475 30.2057 80.1113 29.7305C79.6816 29.2552 79.3464 28.6725 79.1055 27.9824C78.8711 27.2923 78.7539 26.5078 78.7539 25.6289C78.7539 24.457 78.9525 23.4609 79.3496 22.6406C79.7467 21.8138 80.3132 21.1855 81.0488 20.7559C81.791 20.3197 82.6732 20.1016 83.6953 20.1016C84.6719 20.1016 85.5247 20.3197 86.2539 20.7559C86.9896 21.1921 87.5592 21.8236 87.9629 22.6504C88.373 23.4707 88.5781 24.4635 88.5781 25.6289ZM80.4336 25.6289C80.4336 26.4883 80.5475 27.2337 80.7754 27.8652C81.0033 28.4967 81.3548 28.985 81.8301 29.3301C82.3053 29.6751 82.9173 29.8477 83.666 29.8477C84.4082 29.8477 85.0169 29.6751 85.4922 29.3301C85.974 28.985 86.3288 28.4967 86.5566 27.8652C86.7845 27.2337 86.8984 26.4883 86.8984 25.6289C86.8984 24.776 86.7845 24.0404 86.5566 23.4219C86.3288 22.7969 85.9772 22.3151 85.502 21.9766C85.0267 21.638 84.4115 21.4688 83.6562 21.4688C82.543 21.4688 81.7259 21.8366 81.2051 22.5723C80.6908 23.3079 80.4336 24.3268 80.4336 25.6289ZM95.502 20.1016C96.4134 20.1016 97.1947 20.3034 97.8457 20.707C98.4967 21.1107 98.9948 21.6771 99.3398 22.4062C99.6849 23.1289 99.8574 23.9753 99.8574 24.9453V25.9512H92.4648C92.4844 27.2077 92.7969 28.1647 93.4023 28.8223C94.0078 29.4798 94.8607 29.8086 95.9609 29.8086C96.638 29.8086 97.237 29.7467 97.7578 29.623C98.2786 29.4993 98.819 29.3171 99.3789 29.0762V30.502C98.8385 30.7428 98.3014 30.9186 97.7676 31.0293C97.2402 31.14 96.6152 31.1953 95.8926 31.1953C94.8639 31.1953 93.9655 30.987 93.1973 30.5703C92.4355 30.1471 91.8431 29.5286 91.4199 28.7148C90.9967 27.901 90.7852 26.9049 90.7852 25.7266C90.7852 24.5742 90.9772 23.5781 91.3613 22.7383C91.752 21.8919 92.2988 21.2409 93.002 20.7852C93.7116 20.3294 94.5449 20.1016 95.502 20.1016ZM95.4824 21.4297C94.6165 21.4297 93.9264 21.7129 93.4121 22.2793C92.8978 22.8457 92.5918 23.6367 92.4941 24.6523H98.1582C98.1517 24.0143 98.0508 23.4544 97.8555 22.9727C97.6667 22.4844 97.377 22.1068 96.9863 21.8398C96.5957 21.5664 96.0944 21.4297 95.4824 21.4297Z" fill="#212529"/>
</g>
<g clip-path="url(#clip1_42_1229)">
<path d="M755 23C755 25.6522 753.946 28.1957 752.071 30.0711C750.196 31.9464 747.652 33 745 33C742.348 33 739.804 31.9464 737.929 30.0711C736.054 28.1957 735 25.6522 735 23C735 20.3478 736.054 17.8043 737.929 15.9289C739.804 14.0536 742.348 13 745 13C747.652 13 750.196 14.0536 752.071 15.9289C753.946 17.8043 755 20.3478 755 23ZM750.037 19.2125C749.948 19.1235 749.842 19.0535 749.725 19.0065C749.608 18.9596 749.483 18.9367 749.357 18.9393C749.231 18.9418 749.106 18.9698 748.991 19.0215C748.876 19.0731 748.773 19.1475 748.688 19.24L744.346 24.7712L741.73 22.1537C741.552 21.9881 741.317 21.898 741.074 21.9023C740.831 21.9066 740.6 22.005 740.428 22.1767C740.256 22.3485 740.158 22.5802 740.154 22.8231C740.149 23.066 740.239 23.301 740.405 23.4788L743.712 26.7875C743.802 26.8764 743.908 26.9465 744.024 26.9936C744.141 27.0406 744.266 27.0637 744.392 27.0613C744.518 27.059 744.642 27.0313 744.757 26.98C744.872 26.9286 744.976 26.8547 745.061 26.7625L750.051 20.525C750.221 20.3481 750.315 20.1116 750.313 19.8662C750.311 19.6208 750.212 19.3861 750.039 19.2125H750.037Z" fill="#3BAF77"/>
</g>
</g>
<defs>
<filter id="filter0_i_42_1229" x="0" y="0" width="775" height="46" filterUnits="userSpaceOnUse" color-interpolation-filters="sRGB">
<feFlood flood-opacity="0" result="BackgroundImageFix"/>
<feBlend mode="normal" in="SourceGraphic" in2="BackgroundImageFix" result="shape"/>
<feColorMatrix in="SourceAlpha" type="matrix" values="0 0 0 0 0 0 0 0 0 0 0 0 0 0 0 0 0 0 127 0" result="hardAlpha"/>
<feOffset dy="-1"/>
<feComposite in2="hardAlpha" operator="arithmetic" k2="-1" k3="1"/>
<feColorMatrix type="matrix" values="0 0 0 0 0 0 0 0 0 0 0 0 0 0 0 0 0 0 0.125 0"/>
<feBlend mode="normal" in2="shape" result="effect1_innerShadow_42_1229"/>
</filter>
<clipPath id="clip0_42_1229">
<rect width="698" height="30" fill="white" transform="translate(16 8)"/>
</clipPath>
<clipPath id="clip1_42_1229">
<rect width="20" height="20" fill="white" transform="translate(735 13)"/>
</clipPath>
</defs>
</svg>
