<svg width="276" height="24" viewBox="0 0 276 24" fill="none" xmlns="http://www.w3.org/2000/svg">
<path d="M25.2333 18.8C24.5 18.8 23.9333 18.6 23.5333 18.2C23.1333 17.7833 22.9333 17.2083 22.9333 16.475V3.275C22.9333 2.525 23.1333 1.95 23.5333 1.55C23.95 1.15 24.525 0.95 25.2583 0.95H31.4083C33.4083 0.95 34.95 1.44167 36.0333 2.425C37.1334 3.39167 37.6834 4.74167 37.6834 6.475C37.6834 7.59167 37.4334 8.56667 36.9333 9.4C36.45 10.2167 35.7417 10.85 34.8084 11.3C33.8917 11.7333 32.7584 11.95 31.4083 11.95L31.6083 11.5H32.8083C33.525 11.5 34.1583 11.675 34.7084 12.025C35.2584 12.3583 35.7167 12.875 36.0834 13.575L37.3334 15.825C37.6 16.3083 37.725 16.7833 37.7084 17.25C37.6917 17.7 37.5084 18.075 37.1583 18.375C36.825 18.6583 36.3334 18.8 35.6833 18.8C35.0333 18.8 34.5 18.6667 34.0834 18.4C33.6834 18.1333 33.325 17.7167 33.0083 17.15L30.7333 12.975C30.5333 12.6083 30.275 12.3583 29.9584 12.225C29.6583 12.075 29.3083 12 28.9083 12H27.5333V16.475C27.5333 17.2083 27.3417 17.7833 26.9583 18.2C26.575 18.6 26 18.8 25.2333 18.8ZM27.5333 8.75H30.5833C31.4667 8.75 32.1417 8.575 32.6084 8.225C33.075 7.875 33.3084 7.33333 33.3084 6.6C33.3084 5.9 33.075 5.375 32.6084 5.025C32.1417 4.65833 31.4667 4.475 30.5833 4.475H27.5333V8.75Z" fill="white"/>
<path d="M46.6429 18.85C45.1429 18.85 43.8429 18.5917 42.7429 18.075C41.6596 17.5417 40.8263 16.7917 40.2429 15.825C39.6596 14.8583 39.3679 13.7167 39.3679 12.4C39.3679 11.1333 39.6429 10.025 40.1929 9.075C40.7596 8.10833 41.5263 7.35833 42.4929 6.825C43.4763 6.275 44.5929 6 45.8429 6C46.7596 6 47.5929 6.15 48.3429 6.45C49.0929 6.73333 49.7346 7.15833 50.2679 7.725C50.8013 8.275 51.2013 8.94167 51.4679 9.725C51.7513 10.5083 51.8929 11.3833 51.8929 12.35C51.8929 12.6833 51.8013 12.9333 51.6179 13.1C51.4346 13.25 51.1429 13.325 50.7429 13.325H43.0929V11.225H48.6429L48.2429 11.55C48.2429 10.9333 48.1596 10.4333 47.9929 10.05C47.8263 9.66667 47.5763 9.375 47.2429 9.175C46.9263 8.975 46.5263 8.875 46.0429 8.875C45.5263 8.875 45.0763 9 44.6929 9.25C44.3263 9.48333 44.0429 9.83333 43.8429 10.3C43.6429 10.7667 43.5429 11.35 43.5429 12.05V12.275C43.5429 13.4583 43.8013 14.3083 44.3179 14.825C44.8513 15.325 45.6679 15.575 46.7679 15.575C47.1346 15.575 47.5513 15.5333 48.0179 15.45C48.5013 15.35 48.9596 15.2167 49.3929 15.05C49.8263 14.8833 50.2013 14.8583 50.5179 14.975C50.8346 15.075 51.0763 15.2583 51.2429 15.525C51.4263 15.775 51.5263 16.0667 51.5429 16.4C51.5596 16.7167 51.4846 17.0333 51.3179 17.35C51.1513 17.65 50.8763 17.8833 50.4929 18.05C49.9096 18.3167 49.2846 18.5167 48.6179 18.65C47.9679 18.7833 47.3096 18.85 46.6429 18.85Z" fill="white"/>
<path d="M58.6101 18.85C57.5601 18.85 56.6268 18.5917 55.8101 18.075C55.0101 17.5583 54.3768 16.8167 53.9101 15.85C53.4601 14.8833 53.2351 13.7417 53.2351 12.425C53.2351 11.075 53.4601 9.925 53.9101 8.975C54.3768 8.025 55.0101 7.29167 55.8101 6.775C56.6268 6.25833 57.5601 6 58.6101 6C59.5268 6 60.3518 6.21667 61.0851 6.65C61.8184 7.08333 62.3101 7.64167 62.5601 8.325H62.2851V2.975C62.2851 2.24167 62.4768 1.68333 62.8601 1.3C63.2434 0.916666 63.7934 0.725 64.5101 0.725C65.2101 0.725 65.7518 0.916666 66.1351 1.3C66.5351 1.68333 66.7351 2.24167 66.7351 2.975V16.55C66.7351 17.2833 66.5434 17.8417 66.1601 18.225C65.7934 18.6083 65.2518 18.8 64.5351 18.8C63.8351 18.8 63.2934 18.6083 62.9101 18.225C62.5268 17.8417 62.3351 17.2833 62.3351 16.55V15.125L62.6101 16.35C62.3768 17.1 61.8851 17.7083 61.1351 18.175C60.4018 18.625 59.5601 18.85 58.6101 18.85ZM60.0351 15.575C60.4851 15.575 60.8851 15.4667 61.2351 15.25C61.5851 15.0167 61.8518 14.675 62.0351 14.225C62.2351 13.7583 62.3351 13.1583 62.3351 12.425C62.3351 11.3083 62.1184 10.5083 61.6851 10.025C61.2518 9.525 60.7018 9.275 60.0351 9.275C59.5851 9.275 59.1851 9.38333 58.8351 9.6C58.4851 9.81667 58.2101 10.1583 58.0101 10.625C57.8101 11.075 57.7101 11.675 57.7101 12.425C57.7101 13.525 57.9268 14.325 58.3601 14.825C58.7934 15.325 59.3518 15.575 60.0351 15.575Z" fill="white"/>
<path d="M77.413 18.85C76.463 18.85 75.613 18.625 74.863 18.175C74.1297 17.7083 73.6464 17.1 73.413 16.35L73.688 15.325V16.55C73.688 17.2833 73.4964 17.8417 73.113 18.225C72.7464 18.6083 72.213 18.8 71.513 18.8C70.7964 18.8 70.2464 18.6083 69.863 18.225C69.4964 17.8417 69.313 17.2833 69.313 16.55V2.975C69.313 2.24167 69.5047 1.68333 69.888 1.3C70.2714 0.916666 70.813 0.725 71.513 0.725C72.2297 0.725 72.7797 0.916666 73.163 1.3C73.563 1.68333 73.763 2.24167 73.763 2.975V8.325H73.463C73.713 7.64167 74.2047 7.08333 74.938 6.65C75.6714 6.21667 76.4964 6 77.413 6C78.4797 6 79.413 6.25833 80.213 6.775C81.0297 7.29167 81.663 8.025 82.113 8.975C82.563 9.925 82.788 11.075 82.788 12.425C82.788 13.7417 82.563 14.8833 82.113 15.85C81.663 16.8167 81.0297 17.5583 80.213 18.075C79.413 18.5917 78.4797 18.85 77.413 18.85ZM76.013 15.575C76.463 15.575 76.8547 15.4667 77.188 15.25C77.538 15.0167 77.813 14.675 78.013 14.225C78.213 13.7583 78.313 13.1583 78.313 12.425C78.313 11.3083 78.0964 10.5083 77.663 10.025C77.2297 9.525 76.6797 9.275 76.013 9.275C75.563 9.275 75.163 9.38333 74.813 9.6C74.463 9.81667 74.188 10.1583 73.988 10.625C73.788 11.075 73.688 11.675 73.688 12.425C73.688 13.525 73.9047 14.325 74.338 14.825C74.7714 15.325 75.3297 15.575 76.013 15.575Z" fill="white"/>
<path d="M91.516 18.85C90.016 18.85 88.716 18.5917 87.616 18.075C86.5326 17.5417 85.6993 16.7917 85.116 15.825C84.5326 14.8583 84.241 13.7167 84.241 12.4C84.241 11.1333 84.516 10.025 85.066 9.075C85.6326 8.10833 86.3993 7.35833 87.366 6.825C88.3493 6.275 89.466 6 90.716 6C91.6326 6 92.466 6.15 93.216 6.45C93.966 6.73333 94.6076 7.15833 95.141 7.725C95.6743 8.275 96.0743 8.94167 96.341 9.725C96.6243 10.5083 96.766 11.3833 96.766 12.35C96.766 12.6833 96.6743 12.9333 96.491 13.1C96.3076 13.25 96.016 13.325 95.616 13.325H87.966V11.225H93.516L93.116 11.55C93.116 10.9333 93.0326 10.4333 92.866 10.05C92.6993 9.66667 92.4493 9.375 92.116 9.175C91.7993 8.975 91.3993 8.875 90.916 8.875C90.3993 8.875 89.9493 9 89.566 9.25C89.1993 9.48333 88.916 9.83333 88.716 10.3C88.516 10.7667 88.416 11.35 88.416 12.05V12.275C88.416 13.4583 88.6743 14.3083 89.191 14.825C89.7243 15.325 90.541 15.575 91.641 15.575C92.0076 15.575 92.4243 15.5333 92.891 15.45C93.3743 15.35 93.8326 15.2167 94.266 15.05C94.6993 14.8833 95.0743 14.8583 95.391 14.975C95.7076 15.075 95.9493 15.2583 96.116 15.525C96.2993 15.775 96.3993 16.0667 96.416 16.4C96.4326 16.7167 96.3576 17.0333 96.191 17.35C96.0243 17.65 95.7493 17.8833 95.366 18.05C94.7826 18.3167 94.1576 18.5167 93.491 18.65C92.841 18.7833 92.1826 18.85 91.516 18.85Z" fill="white"/>
<path d="M100.958 18.8C100.225 18.8 99.6582 18.6083 99.2582 18.225C98.8748 17.8417 98.6832 17.2833 98.6832 16.55V8.275C98.6832 7.55833 98.8665 7.00833 99.2332 6.625C99.6165 6.24167 100.158 6.05 100.858 6.05C101.558 6.05 102.091 6.24167 102.458 6.625C102.825 7.00833 103.008 7.55833 103.008 8.275V9.3H102.758C102.925 8.3 103.35 7.50833 104.033 6.925C104.733 6.34167 105.6 6.03333 106.633 6C107.116 5.98333 107.475 6.10833 107.708 6.375C107.958 6.625 108.091 7.1 108.108 7.8C108.108 8.4 107.983 8.875 107.733 9.225C107.483 9.575 107.008 9.78333 106.308 9.85L105.733 9.9C104.85 9.98333 104.208 10.2333 103.808 10.65C103.408 11.05 103.208 11.65 103.208 12.45V16.55C103.208 17.2833 103.016 17.8417 102.633 18.225C102.25 18.6083 101.691 18.8 100.958 18.8Z" fill="white"/>
<path d="M111.798 18.8C111.065 18.8 110.498 18.6083 110.098 18.225C109.715 17.8417 109.523 17.2833 109.523 16.55V8.275C109.523 7.55833 109.706 7.00833 110.073 6.625C110.456 6.24167 110.998 6.05 111.698 6.05C112.398 6.05 112.931 6.24167 113.298 6.625C113.665 7.00833 113.848 7.55833 113.848 8.275V9.3H113.598C113.765 8.3 114.19 7.50833 114.873 6.925C115.573 6.34167 116.44 6.03333 117.473 6C117.956 5.98333 118.315 6.10833 118.548 6.375C118.798 6.625 118.931 7.1 118.948 7.8C118.948 8.4 118.823 8.875 118.573 9.225C118.323 9.575 117.848 9.78333 117.148 9.85L116.573 9.9C115.69 9.98333 115.048 10.2333 114.648 10.65C114.248 11.05 114.048 11.65 114.048 12.45V16.55C114.048 17.2833 113.856 17.8417 113.473 18.225C113.09 18.6083 112.531 18.8 111.798 18.8Z" fill="white"/>
<path d="M124.695 23.3C124.178 23.3 123.761 23.1667 123.445 22.9C123.128 22.6333 122.928 22.2833 122.845 21.85C122.778 21.4167 122.853 20.9583 123.07 20.475L124.745 16.85V18.65L120.47 8.875C120.253 8.375 120.178 7.90833 120.245 7.475C120.328 7.04167 120.553 6.7 120.92 6.45C121.286 6.18333 121.786 6.05 122.42 6.05C122.953 6.05 123.378 6.175 123.695 6.425C124.028 6.65833 124.328 7.125 124.595 7.825L127.095 14.325H126.245L128.895 7.8C129.161 7.11667 129.461 6.65833 129.795 6.425C130.145 6.175 130.611 6.05 131.195 6.05C131.695 6.05 132.095 6.18333 132.395 6.45C132.695 6.7 132.878 7.04167 132.945 7.475C133.011 7.90833 132.936 8.375 132.72 8.875L127.045 21.625C126.745 22.2917 126.411 22.7333 126.045 22.95C125.695 23.1833 125.245 23.3 124.695 23.3Z" fill="white"/>
<path d="M144.398 18.8C143.665 18.8 143.098 18.6 142.698 18.2C142.298 17.7833 142.098 17.2083 142.098 16.475V3.05C142.098 2.28333 142.298 1.70833 142.698 1.325C143.098 0.924999 143.665 0.725 144.398 0.725C145.148 0.725 145.715 0.924999 146.098 1.325C146.498 1.70833 146.698 2.28333 146.698 3.05V8.5H146.748L152.823 1.8C153.14 1.46667 153.473 1.20833 153.823 1.025C154.19 0.825 154.598 0.725 155.048 0.725C155.748 0.725 156.248 0.908333 156.548 1.275C156.865 1.625 157.007 2.04167 156.973 2.525C156.957 2.99167 156.765 3.425 156.398 3.825L150.348 10.25V8.375L156.698 15.55C157.132 16.0333 157.348 16.5333 157.348 17.05C157.348 17.55 157.173 17.9667 156.823 18.3C156.49 18.6333 155.99 18.8 155.323 18.8C154.757 18.8 154.298 18.6917 153.948 18.475C153.615 18.2417 153.248 17.9 152.848 17.45L146.748 10.625H146.698V16.475C146.698 17.2083 146.507 17.7833 146.123 18.2C145.74 18.6 145.165 18.8 144.398 18.8Z" fill="white"/>
<path d="M161.796 18.8C161.096 18.8 160.555 18.6083 160.171 18.225C159.788 17.8417 159.596 17.2833 159.596 16.55V8.275C159.596 7.55833 159.78 7.00833 160.146 6.625C160.53 6.24167 161.071 6.05 161.771 6.05C162.471 6.05 163.005 6.24167 163.371 6.625C163.738 7.00833 163.921 7.55833 163.921 8.275V9.45L163.646 8.425C164.046 7.64167 164.613 7.04167 165.346 6.625C166.096 6.20833 166.946 6 167.896 6C168.88 6 169.688 6.19167 170.321 6.575C170.955 6.94167 171.43 7.525 171.746 8.325C172.063 9.10833 172.221 10.1 172.221 11.3V16.55C172.221 17.2833 172.03 17.8417 171.646 18.225C171.263 18.6083 170.713 18.8 169.996 18.8C169.28 18.8 168.73 18.6083 168.346 18.225C167.963 17.8417 167.771 17.2833 167.771 16.55V11.475C167.771 10.725 167.638 10.1917 167.371 9.875C167.121 9.55833 166.746 9.4 166.246 9.4C165.58 9.4 165.046 9.61667 164.646 10.05C164.246 10.4667 164.046 11.0333 164.046 11.75V16.55C164.046 18.05 163.296 18.8 161.796 18.8Z" fill="white"/>
<path d="M176.957 18.8C176.257 18.8 175.716 18.5917 175.332 18.175C174.949 17.7583 174.757 17.1583 174.757 16.375V8.475C174.757 7.69167 174.949 7.09167 175.332 6.675C175.716 6.25833 176.257 6.05 176.957 6.05C177.674 6.05 178.224 6.25833 178.607 6.675C179.007 7.09167 179.207 7.69167 179.207 8.475V16.375C179.207 17.1583 179.016 17.7583 178.632 18.175C178.249 18.5917 177.691 18.8 176.957 18.8ZM176.957 4.275C176.174 4.275 175.566 4.09167 175.132 3.725C174.716 3.35833 174.507 2.825 174.507 2.125C174.507 1.44167 174.716 0.916666 175.132 0.55C175.566 0.183333 176.174 0 176.957 0C177.774 0 178.391 0.183333 178.807 0.55C179.224 0.916666 179.432 1.44167 179.432 2.125C179.432 2.825 179.224 3.35833 178.807 3.725C178.391 4.09167 177.774 4.275 176.957 4.275Z" fill="white"/>
<path d="M187.889 23.35C186.972 23.35 186.114 23.2833 185.314 23.15C184.514 23.0333 183.822 22.8583 183.239 22.625C182.755 22.4583 182.414 22.2167 182.214 21.9C182.014 21.5833 181.922 21.25 181.939 20.9C181.955 20.55 182.047 20.2333 182.214 19.95C182.397 19.6667 182.639 19.4583 182.939 19.325C183.239 19.2083 183.572 19.2167 183.939 19.35C184.672 19.65 185.339 19.8417 185.939 19.925C186.539 20.025 187.047 20.075 187.464 20.075C188.48 20.075 189.239 19.8583 189.739 19.425C190.255 19.0083 190.514 18.35 190.514 17.45V15.875H190.714C190.464 16.575 189.955 17.15 189.189 17.6C188.422 18.0333 187.589 18.25 186.689 18.25C185.589 18.25 184.63 18 183.814 17.5C182.997 16.9833 182.355 16.2667 181.889 15.35C181.439 14.4333 181.214 13.3583 181.214 12.125C181.214 11.1917 181.347 10.35 181.614 9.6C181.88 8.85 182.247 8.20833 182.714 7.675C183.197 7.14167 183.772 6.73333 184.439 6.45C185.122 6.15 185.872 6 186.689 6C187.622 6 188.455 6.21667 189.189 6.65C189.939 7.08333 190.439 7.65 190.689 8.35L190.439 9.375V8.275C190.439 7.55833 190.63 7.00833 191.014 6.625C191.414 6.24167 191.964 6.05 192.664 6.05C193.364 6.05 193.897 6.24167 194.264 6.625C194.647 7.00833 194.839 7.55833 194.839 8.275V16.925C194.839 19.0583 194.239 20.6583 193.039 21.725C191.839 22.8083 190.122 23.35 187.889 23.35ZM188.064 14.975C188.564 14.975 188.989 14.8667 189.339 14.65C189.689 14.4167 189.964 14.0917 190.164 13.675C190.364 13.2417 190.464 12.725 190.464 12.125C190.464 11.225 190.247 10.525 189.814 10.025C189.38 9.525 188.797 9.275 188.064 9.275C187.597 9.275 187.18 9.39167 186.814 9.625C186.447 9.84167 186.164 10.1667 185.964 10.6C185.78 11.0167 185.689 11.525 185.689 12.125C185.689 13.025 185.905 13.725 186.339 14.225C186.772 14.725 187.347 14.975 188.064 14.975Z" fill="white"/>
<path d="M199.638 18.8C198.938 18.8 198.396 18.6083 198.013 18.225C197.63 17.8417 197.438 17.2833 197.438 16.55V2.975C197.438 2.24167 197.63 1.68333 198.013 1.3C198.396 0.916666 198.938 0.725 199.638 0.725C200.355 0.725 200.905 0.916666 201.288 1.3C201.688 1.68333 201.888 2.24167 201.888 2.975V8.425H201.488C201.888 7.64167 202.455 7.04167 203.188 6.625C203.938 6.20833 204.788 6 205.738 6C206.721 6 207.53 6.19167 208.163 6.575C208.796 6.94167 209.271 7.525 209.588 8.325C209.905 9.10833 210.063 10.1 210.063 11.3V16.55C210.063 17.2833 209.871 17.8417 209.488 18.225C209.105 18.6083 208.555 18.8 207.838 18.8C207.121 18.8 206.571 18.6083 206.188 18.225C205.805 17.8417 205.613 17.2833 205.613 16.55V11.475C205.613 10.725 205.48 10.1917 205.213 9.875C204.963 9.55833 204.588 9.4 204.088 9.4C203.421 9.4 202.888 9.61667 202.488 10.05C202.088 10.4667 201.888 11.0333 201.888 11.75V16.55C201.888 18.05 201.138 18.8 199.638 18.8Z" fill="white"/>
<path d="M219.049 18.85C217.799 18.85 216.766 18.6583 215.949 18.275C215.149 17.8917 214.549 17.3167 214.149 16.55C213.749 15.7667 213.549 14.7917 213.549 13.625V9.55H212.699C212.166 9.55 211.749 9.40833 211.449 9.125C211.166 8.84167 211.024 8.43333 211.024 7.9C211.024 7.36667 211.166 6.96667 211.449 6.7C211.749 6.41667 212.166 6.275 212.699 6.275H213.549V4.725C213.549 3.99167 213.741 3.43333 214.124 3.05C214.508 2.66667 215.058 2.475 215.774 2.475C216.491 2.475 217.041 2.66667 217.424 3.05C217.807 3.43333 217.999 3.99167 217.999 4.725V6.275H220.049C220.599 6.275 221.016 6.41667 221.299 6.7C221.599 6.96667 221.749 7.36667 221.749 7.9C221.749 8.43333 221.599 8.84167 221.299 9.125C221.016 9.40833 220.599 9.55 220.049 9.55H217.999V13.475C217.999 14.0917 218.141 14.55 218.424 14.85C218.724 15.1333 219.191 15.275 219.824 15.275C220.058 15.275 220.283 15.25 220.499 15.2C220.716 15.15 220.916 15.125 221.099 15.125C221.366 15.1083 221.583 15.1917 221.749 15.375C221.916 15.5417 221.999 15.9333 221.999 16.55C221.999 17.05 221.924 17.475 221.774 17.825C221.624 18.1583 221.357 18.4 220.974 18.55C220.741 18.6333 220.424 18.7 220.024 18.75C219.624 18.8167 219.299 18.85 219.049 18.85Z" fill="white"/>
<path d="M239.597 18.85C237.647 18.85 235.972 18.475 234.572 17.725C233.172 16.975 232.097 15.9167 231.347 14.55C230.614 13.1833 230.247 11.5833 230.247 9.75C230.247 8.38333 230.455 7.14167 230.872 6.025C231.305 4.90833 231.922 3.95 232.722 3.15C233.539 2.35 234.522 1.74167 235.672 1.325C236.839 0.891667 238.147 0.675 239.597 0.675C240.364 0.675 241.155 0.766667 241.972 0.95C242.805 1.11667 243.539 1.375 244.172 1.725C244.639 1.975 244.964 2.29167 245.147 2.675C245.33 3.05833 245.389 3.45 245.322 3.85C245.272 4.25 245.13 4.60833 244.897 4.925C244.664 5.24167 244.364 5.45833 243.997 5.575C243.63 5.675 243.23 5.61667 242.797 5.4C242.297 5.16667 241.797 4.99167 241.297 4.875C240.814 4.74167 240.305 4.675 239.772 4.675C238.739 4.675 237.872 4.875 237.172 5.275C236.489 5.65833 235.972 6.225 235.622 6.975C235.272 7.725 235.097 8.65 235.097 9.75C235.097 10.85 235.272 11.7833 235.622 12.55C235.972 13.3 236.489 13.875 237.172 14.275C237.872 14.6583 238.739 14.85 239.772 14.85C240.205 14.85 240.672 14.8 241.172 14.7C241.672 14.5833 242.164 14.4083 242.647 14.175C243.147 13.9583 243.589 13.9 243.972 14C244.372 14.1 244.689 14.3 244.922 14.6C245.172 14.9 245.33 15.25 245.397 15.65C245.464 16.0333 245.405 16.4167 245.222 16.8C245.055 17.1833 244.755 17.4917 244.322 17.725C243.739 18.075 243.014 18.35 242.147 18.55C241.297 18.75 240.447 18.85 239.597 18.85Z" fill="white"/>
<path d="M251.867 18.85C250.8 18.85 249.925 18.6583 249.242 18.275C248.559 17.875 248.042 17.2833 247.692 16.5C247.359 15.7167 247.192 14.725 247.192 13.525V8.275C247.192 7.54167 247.384 6.99167 247.767 6.625C248.15 6.24167 248.7 6.05 249.417 6.05C250.134 6.05 250.684 6.24167 251.067 6.625C251.45 6.99167 251.642 7.54167 251.642 8.275V13.65C251.642 14.25 251.767 14.7 252.017 15C252.267 15.3 252.659 15.45 253.192 15.45C253.792 15.45 254.284 15.2333 254.667 14.8C255.05 14.3667 255.242 13.7917 255.242 13.075V8.275C255.242 7.54167 255.434 6.99167 255.817 6.625C256.2 6.24167 256.75 6.05 257.467 6.05C258.184 6.05 258.734 6.24167 259.117 6.625C259.5 6.99167 259.692 7.54167 259.692 8.275V16.55C259.692 18.05 258.975 18.8 257.542 18.8C256.842 18.8 256.3 18.6083 255.917 18.225C255.534 17.8417 255.342 17.2833 255.342 16.55V15.1L255.742 16.325C255.375 17.1417 254.859 17.7667 254.192 18.2C253.542 18.6333 252.767 18.85 251.867 18.85Z" fill="white"/>
<path d="M264.482 23.3C263.782 23.3 263.24 23.1083 262.857 22.725C262.473 22.3417 262.282 21.7833 262.282 21.05V8.275C262.282 7.55833 262.465 7.00833 262.832 6.625C263.215 6.24167 263.757 6.05 264.457 6.05C265.173 6.05 265.715 6.24167 266.082 6.625C266.465 7.00833 266.657 7.55833 266.657 8.275V9.725L266.382 8.5C266.615 7.75 267.098 7.15 267.832 6.7C268.582 6.23333 269.432 6 270.382 6C271.448 6 272.382 6.25833 273.182 6.775C273.998 7.29167 274.632 8.025 275.082 8.975C275.532 9.925 275.757 11.075 275.757 12.425C275.757 13.7417 275.532 14.8833 275.082 15.85C274.632 16.8167 273.998 17.5583 273.182 18.075C272.382 18.5917 271.448 18.85 270.382 18.85C269.465 18.85 268.64 18.6333 267.907 18.2C267.173 17.7667 266.682 17.2 266.432 16.5H266.732V21.05C266.732 21.7833 266.532 22.3417 266.132 22.725C265.748 23.1083 265.198 23.3 264.482 23.3ZM268.982 15.575C269.432 15.575 269.823 15.4667 270.157 15.25C270.507 15.0167 270.782 14.675 270.982 14.225C271.182 13.7583 271.282 13.1583 271.282 12.425C271.282 11.3083 271.065 10.5083 270.632 10.025C270.198 9.525 269.648 9.275 268.982 9.275C268.532 9.275 268.132 9.38333 267.782 9.6C267.432 9.81667 267.157 10.1583 266.957 10.625C266.757 11.075 266.657 11.675 266.657 12.425C266.657 13.525 266.873 14.325 267.307 14.825C267.74 15.325 268.298 15.575 268.982 15.575Z" fill="white"/>
<path d="M12.8333 1.32502C13.3196 1.32502 13.7859 1.51818 14.1297 1.86199C14.4735 2.20581 14.6667 2.67213 14.6667 3.15836C14.6667 3.90086 14.2083 4.53336 13.5942 4.82669L11.9167 10.6292V15.075H2.75V10.6292L1.0725 4.82669C0.458333 4.53336 0 3.90086 0 3.15836C0 2.67213 0.193154 2.20581 0.536971 1.86199C0.880787 1.51818 1.3471 1.32502 1.83333 1.32502C2.31956 1.32502 2.78588 1.51818 3.1297 1.86199C3.47351 2.20581 3.66667 2.67213 3.66667 3.15836C3.66667 3.61669 3.50167 4.02919 3.20833 4.35002L5.775 7.14586L6.26083 3.72669C5.8025 3.39669 5.5 2.85586 5.5 2.24169C5.5 1.75546 5.69315 1.28914 6.03697 0.945327C6.38079 0.60151 6.8471 0.408356 7.33333 0.408356C7.81956 0.408356 8.28588 0.60151 8.62969 0.945327C8.97351 1.28914 9.16667 1.75546 9.16667 2.24169C9.16667 2.85586 8.86417 3.39669 8.40583 3.72669L8.89167 7.14586L11.4308 4.34086C11.1522 4.00987 10.9996 3.59101 11 3.15836C11 2.67213 11.1932 2.20581 11.537 1.86199C11.8808 1.51818 12.3471 1.32502 12.8333 1.32502ZM0.916667 16.9084H13.75V18.7417H0.916667V16.9084Z" fill="white"/>
</svg>
