<svg width="402" height="261" viewBox="0 0 402 261" fill="none" xmlns="http://www.w3.org/2000/svg">
<path d="M281.273 90.3456C281.004 90.3456 280.745 90.2387 280.555 90.0484C280.365 89.858 280.258 89.5998 280.258 89.3306V85.2706C280.258 85.0015 280.365 84.7433 280.555 84.5529C280.745 84.3626 281.004 84.2556 281.273 84.2556C281.542 84.2556 281.8 84.3626 281.991 84.5529C282.181 84.7433 282.288 85.0015 282.288 85.2706V89.3306C282.288 89.5998 282.181 89.858 281.991 90.0484C281.8 90.2387 281.542 90.3456 281.273 90.3456Z" fill="#DFEAEF"/>
<path d="M281.273 99.5822C281.004 99.5822 280.745 99.4752 280.555 99.2849C280.365 99.0945 280.258 98.8364 280.258 98.5672V94.5072C280.258 94.238 280.365 93.9798 280.555 93.7894C280.745 93.5991 281.004 93.4922 281.273 93.4922C281.542 93.4922 281.8 93.5991 281.991 93.7894C282.181 93.9798 282.288 94.238 282.288 94.5072V98.5672C282.288 98.8364 282.181 99.0945 281.991 99.2849C281.8 99.4752 281.542 99.5822 281.273 99.5822Z" fill="#DFEAEF"/>
<path d="M287.94 92.9136H283.88C283.611 92.9136 283.353 92.8067 283.163 92.6163C282.972 92.426 282.865 92.1678 282.865 91.8986C282.865 91.6294 282.972 91.3712 283.163 91.1809C283.353 90.9905 283.611 90.8836 283.88 90.8836H287.94C288.209 90.8836 288.468 90.9905 288.658 91.1809C288.848 91.3712 288.955 91.6294 288.955 91.8986C288.955 92.1678 288.848 92.426 288.658 92.6163C288.468 92.8067 288.209 92.9136 287.94 92.9136Z" fill="#DFEAEF"/>
<path d="M278.704 92.9136H274.644C274.375 92.9136 274.117 92.8067 273.926 92.6163C273.736 92.426 273.629 92.1678 273.629 91.8986C273.629 91.6294 273.736 91.3712 273.926 91.1809C274.117 90.9905 274.375 90.8836 274.644 90.8836H278.704C278.973 90.8836 279.231 90.9905 279.422 91.1809C279.612 91.3712 279.719 91.6294 279.719 91.8986C279.719 92.1678 279.612 92.426 279.422 92.6163C279.231 92.8067 278.973 92.9136 278.704 92.9136Z" fill="#DFEAEF"/>
<path d="M230.38 10.3332C230.111 10.3332 229.853 10.2263 229.663 10.0359C229.472 9.84557 229.365 9.5874 229.365 9.31821V5.25821C229.365 4.98901 229.472 4.73084 229.663 4.54049C229.853 4.35014 230.111 4.24321 230.38 4.24321C230.649 4.24321 230.908 4.35014 231.098 4.54049C231.288 4.73084 231.395 4.98901 231.395 5.25821V9.31821C231.395 9.5874 231.288 9.84557 231.098 10.0359C230.908 10.2263 230.649 10.3332 230.38 10.3332Z" fill="#DFEAEF"/>
<path d="M230.38 19.5799C230.111 19.5799 229.853 19.4729 229.663 19.2826C229.472 19.0922 229.365 18.8341 229.365 18.5649V14.4541C229.365 14.1849 229.472 13.9267 229.663 13.7364C229.853 13.546 230.111 13.4391 230.38 13.4391C230.649 13.4391 230.908 13.546 231.098 13.7364C231.288 13.9267 231.395 14.1849 231.395 14.4541V18.5649C231.395 18.8341 231.288 19.0922 231.098 19.2826C230.908 19.4729 230.649 19.5799 230.38 19.5799Z" fill="#DFEAEF"/>
<path d="M237.05 12.9418H232.99C232.72 12.9418 232.462 12.8348 232.272 12.6445C232.082 12.4541 231.975 12.196 231.975 11.9268C231.975 11.6576 232.082 11.3994 232.272 11.209C232.462 11.0187 232.72 10.9118 232.99 10.9118H237.05C237.319 10.9118 237.577 11.0187 237.767 11.209C237.958 11.3994 238.065 11.6576 238.065 11.9268C238.065 12.196 237.958 12.4541 237.767 12.6445C237.577 12.8348 237.319 12.9418 237.05 12.9418Z" fill="#DFEAEF"/>
<path d="M227.813 12.9418H223.753C223.484 12.9418 223.226 12.8348 223.036 12.6445C222.845 12.4541 222.738 12.196 222.738 11.9268C222.738 11.6576 222.845 11.3994 223.036 11.209C223.226 11.0187 223.484 10.9118 223.753 10.9118H227.813C228.082 10.9118 228.341 11.0187 228.531 11.209C228.721 11.3994 228.828 11.6576 228.828 11.9268C228.828 12.196 228.721 12.4541 228.531 12.6445C228.341 12.8348 228.082 12.9418 227.813 12.9418Z" fill="#DFEAEF"/>
<path d="M288.134 61.1847C287.865 61.1847 287.607 61.0778 287.416 60.8874C287.226 60.6971 287.119 60.4389 287.119 60.1697V52.6181C287.119 52.3489 287.226 52.0907 287.416 51.9004C287.607 51.71 287.865 51.6031 288.134 51.6031C288.403 51.6031 288.661 51.71 288.852 51.9004C289.042 52.0907 289.149 52.3489 289.149 52.6181V60.1697C289.149 60.4389 289.042 60.6971 288.852 60.8874C288.661 61.0778 288.403 61.1847 288.134 61.1847Z" fill="#DFEAEF"/>
<path d="M291.899 57.4089H284.388C284.119 57.4089 283.861 57.302 283.67 57.1116C283.48 56.9213 283.373 56.6631 283.373 56.3939C283.373 56.1247 283.48 55.8665 283.67 55.6762C283.861 55.4858 284.119 55.3789 284.388 55.3789H291.929C292.199 55.3789 292.457 55.4858 292.647 55.6762C292.838 55.8665 292.944 56.1247 292.944 56.3939C292.944 56.6631 292.838 56.9213 292.647 57.1116C292.457 57.302 292.199 57.4089 291.929 57.4089H291.899Z" fill="#DFEAEF"/>
<path d="M200.12 185.879L260.458 147.941C264.648 145.306 265.909 139.774 263.274 135.583L189.338 17.9931C186.704 13.8027 181.171 12.5416 176.981 15.1763L116.643 53.1141C112.453 55.7488 111.192 61.2816 113.826 65.472L187.762 183.062C190.397 187.253 195.93 188.514 200.12 185.879Z" fill="#093F68"/>
<path d="M195.373 188.283C193.683 188.287 192.02 187.862 190.539 187.047C189.058 186.232 187.809 185.054 186.908 183.624L112.965 66.0364C112.265 64.9287 111.791 63.6938 111.569 62.4024C111.348 61.111 111.383 59.7885 111.673 58.5109C111.964 57.2332 112.504 56.0254 113.262 54.9567C114.02 53.888 114.981 52.9795 116.091 52.2832L176.433 14.3323C178.674 12.9279 181.38 12.4693 183.958 13.0573C186.536 13.6452 188.776 15.2317 190.186 17.4687L264.139 135.056C265.55 137.291 266.017 139.995 265.436 142.573C264.856 145.152 263.276 147.395 261.044 148.81L200.702 186.76C199.107 187.765 197.258 188.293 195.373 188.283ZM181.731 14.8398C180.24 14.8355 178.778 15.2582 177.519 16.0578L117.177 53.9985C116.294 54.5532 115.528 55.2766 114.924 56.1273C114.321 56.9781 113.89 57.9396 113.659 58.9568C113.427 59.974 113.398 61.0269 113.573 62.0553C113.748 63.0837 114.125 64.0675 114.681 64.9504L188.623 182.538C189.747 184.321 191.533 185.586 193.588 186.054C195.643 186.522 197.8 186.155 199.585 185.035L259.927 147.094C260.81 146.539 261.575 145.815 262.177 144.964C262.78 144.112 263.209 143.151 263.44 142.134C263.671 141.117 263.699 140.064 263.523 139.036C263.347 138.008 262.97 137.025 262.414 136.142L188.471 18.5445C187.754 17.4058 186.76 16.4682 185.581 15.8201C184.402 15.172 183.077 14.8346 181.731 14.8398Z" fill="#093F68"/>
<path d="M208.884 179.176L269.466 141.402C273.673 138.778 274.957 133.241 272.334 129.033L198.715 10.9661C196.092 6.75872 190.555 5.47466 186.347 8.09806L125.765 45.8729C121.558 48.4963 120.274 54.0338 122.897 58.2411L196.515 176.308C199.139 180.516 204.676 181.8 208.884 179.176Z" fill="#68E1FD"/>
<path d="M204.773 182.376C203.082 182.378 201.418 181.95 199.937 181.134C198.457 180.317 197.208 179.138 196.307 177.707L122.365 60.119C121.665 59.0107 121.192 57.7752 120.971 56.4834C120.75 55.1916 120.786 53.8689 121.077 52.5912C121.369 51.3134 121.909 50.1058 122.669 49.0375C123.428 47.9692 124.39 47.0612 125.501 46.3657L185.833 8.42501C188.074 7.01736 190.783 6.55701 193.363 7.14508C195.944 7.73315 198.186 9.32156 199.596 11.5614L273.539 129.149C274.933 131.386 275.386 134.083 274.798 136.652C274.211 139.221 272.63 141.454 270.402 142.862L210.061 180.802L209.523 179.95L210.061 180.802C208.482 181.817 206.649 182.362 204.773 182.376ZM191.131 8.88176C189.64 8.88253 188.18 9.30477 186.919 10.0998L126.577 48.0506C125.692 48.6043 124.926 49.3273 124.321 50.178C123.717 51.0287 123.286 51.9904 123.054 53.008C122.822 54.0255 122.793 55.0788 122.969 56.1075C123.145 57.1362 123.523 58.12 124.08 59.0025L198.033 176.59C199.155 178.373 200.939 179.637 202.992 180.105C205.046 180.573 207.201 180.207 208.985 179.087L269.327 141.136C271.109 140.014 272.373 138.231 272.841 136.177C273.31 134.124 272.943 131.968 271.823 130.184L197.871 12.6373C197.319 11.7529 196.597 10.987 195.746 10.3841C194.896 9.78124 193.934 9.35336 192.917 9.12536C192.334 8.97406 191.734 8.89229 191.131 8.88176Z" fill="#093F68"/>
<path d="M199.687 162.485L258.366 125.59C260.559 124.211 261.218 121.316 259.84 119.124L201.221 25.8938C199.842 23.7014 196.947 23.0415 194.755 24.4201L136.076 61.3151C133.883 62.6936 133.223 65.5885 134.602 67.7809L193.221 161.011C194.6 163.203 197.495 163.863 199.687 162.485Z" fill="white"/>
<path d="M197.199 164.238C196.235 164.24 195.285 163.997 194.44 163.532C193.595 163.067 192.882 162.395 192.368 161.578L133.731 68.3405C133.333 67.7068 133.063 67.0008 132.938 66.2629C132.812 65.525 132.834 64.7696 133.001 64.0399C133.168 63.3103 133.477 62.6207 133.91 62.0106C134.344 61.4005 134.894 60.8818 135.528 60.4844L194.215 23.579C195.494 22.776 197.04 22.5132 198.512 22.8481C199.985 23.183 201.265 24.0882 202.071 25.3654L260.708 118.603C261.507 119.884 261.767 121.43 261.43 122.902C261.093 124.374 260.188 125.653 258.911 126.459L200.224 163.375C199.317 163.942 198.269 164.241 197.199 164.238ZM197.24 24.7259C196.55 24.7275 195.874 24.9246 195.291 25.2943L136.604 62.1997C136.194 62.4562 135.838 62.7914 135.559 63.186C135.279 63.5805 135.08 64.0265 134.973 64.4983C134.866 64.9701 134.854 65.4583 134.937 65.9349C135.02 66.4114 135.197 66.8668 135.457 67.2747L194.053 160.502C194.575 161.326 195.402 161.91 196.353 162.125C197.304 162.34 198.302 162.169 199.128 161.649L257.815 124.744C258.225 124.487 258.58 124.152 258.86 123.758C259.14 123.363 259.339 122.917 259.446 122.445C259.552 121.974 259.564 121.485 259.481 121.009C259.398 120.532 259.222 120.077 258.962 119.669L200.356 26.4514C200.1 26.0423 199.766 25.6881 199.372 25.4093C198.978 25.1306 198.533 24.9328 198.062 24.8274C197.793 24.7587 197.517 24.7246 197.24 24.7259Z" fill="#093F68"/>
<path d="M173.348 30.1866C174.144 30.1866 174.789 29.5413 174.789 28.7453C174.789 27.9493 174.144 27.304 173.348 27.304C172.552 27.304 171.906 27.9493 171.906 28.7453C171.906 29.5413 172.552 30.1866 173.348 30.1866Z" fill="#093F68"/>
<path d="M148.003 45.6958C147.782 45.6965 147.566 45.6251 147.39 45.4923C147.213 45.3596 147.084 45.1728 147.024 44.9603C146.963 44.7479 146.973 44.5214 147.053 44.3152C147.132 44.109 147.277 43.9345 147.465 43.8181L166.973 31.5467C167.086 31.4761 167.212 31.4284 167.344 31.4065C167.476 31.3846 167.611 31.3889 167.741 31.419C167.871 31.4492 167.994 31.5047 168.102 31.5823C168.211 31.6599 168.303 31.7582 168.374 31.8715C168.444 31.9848 168.492 32.1109 168.514 32.2426C168.536 32.3743 168.532 32.5091 168.501 32.6391C168.471 32.7692 168.416 32.892 168.338 33.0007C168.26 33.1093 168.162 33.2016 168.049 33.2722L148.541 45.5436C148.379 45.6437 148.193 45.6964 148.003 45.6958Z" fill="#093F68"/>
<path d="M234.076 158.137C237.428 158.137 240.145 155.42 240.145 152.068C240.145 148.716 237.428 145.998 234.076 145.998C230.723 145.998 228.006 148.716 228.006 152.068C228.006 155.42 230.723 158.137 234.076 158.137Z" fill="#093F68"/>
<path d="M143.151 110.727C142.933 110.724 142.721 110.651 142.548 110.519C142.375 110.387 142.248 110.202 142.188 109.993C142.128 109.783 142.136 109.56 142.213 109.356C142.289 109.152 142.43 108.978 142.613 108.859L147.353 105.875C147.465 105.793 147.594 105.735 147.73 105.704C147.866 105.674 148.006 105.671 148.143 105.698C148.28 105.724 148.41 105.778 148.525 105.857C148.64 105.935 148.738 106.037 148.812 106.155C148.886 106.273 148.935 106.405 148.956 106.543C148.977 106.681 148.969 106.821 148.933 106.956C148.897 107.091 148.834 107.217 148.747 107.326C148.66 107.435 148.552 107.525 148.429 107.59L143.689 110.575C143.527 110.675 143.341 110.727 143.151 110.727Z" fill="#093F68"/>
<path d="M252.466 121.547C252.296 121.546 252.129 121.504 251.98 121.422C251.831 121.34 251.705 121.223 251.614 121.08L236.064 96.4763C235.92 96.2488 235.872 95.9734 235.931 95.7107C235.99 95.4481 236.151 95.2196 236.378 95.0756C236.606 94.9315 236.881 94.8838 237.144 94.9428C237.407 95.0018 237.635 95.1627 237.779 95.3902L253.329 119.974C253.4 120.086 253.449 120.212 253.471 120.343C253.494 120.474 253.491 120.609 253.462 120.739C253.432 120.869 253.378 120.992 253.301 121.101C253.224 121.21 253.127 121.303 253.014 121.374C252.85 121.479 252.661 121.539 252.466 121.547Z" fill="#DFEAEF"/>
<path d="M155.148 84.9154C154.978 84.9151 154.811 84.8722 154.662 84.7907C154.513 84.7091 154.387 84.5914 154.295 84.4485L151.179 79.607C151.105 79.4942 151.055 79.368 151.03 79.2355C151.006 79.1031 151.008 78.9671 151.037 78.8356C151.066 78.7048 151.12 78.581 151.196 78.4712C151.273 78.3615 151.371 78.268 151.484 78.1961L203.553 45.3C203.778 45.1582 204.051 45.1106 204.311 45.1676C204.571 45.2245 204.798 45.3814 204.944 45.6045L217.895 65.0519C217.978 65.1622 218.038 65.2882 218.07 65.4224C218.103 65.5565 218.108 65.6959 218.084 65.832C218.061 65.968 218.011 66.098 217.936 66.2138C217.861 66.3297 217.763 66.429 217.648 66.5057C217.533 66.5825 217.404 66.635 217.268 66.6601C217.133 66.6852 216.993 66.6823 216.859 66.6517C216.724 66.621 216.597 66.5633 216.486 66.4819C216.374 66.4006 216.28 66.2973 216.21 66.1785L203.807 47.5533L153.453 79.3634L156.01 83.3523C156.155 83.5785 156.205 83.853 156.148 84.1156C156.091 84.3782 155.932 84.6074 155.706 84.753C155.54 84.8604 155.346 84.9169 155.148 84.9154Z" fill="#DFEAEF"/>
<path d="M180.31 110.29C180.171 110.29 180.034 110.261 179.906 110.205C179.779 110.149 179.664 110.068 179.57 109.966C179.387 109.769 179.29 109.508 179.299 109.24C179.309 108.971 179.424 108.718 179.62 108.534L219.743 70.9795C219.94 70.7951 220.201 70.6963 220.471 70.7048C220.74 70.7134 220.995 70.8286 221.179 71.0251C221.364 71.2216 221.463 71.4834 221.454 71.7527C221.445 72.022 221.33 72.277 221.134 72.4614L181.001 110.016C180.813 110.192 180.567 110.29 180.31 110.29Z" fill="#093F68"/>
<path d="M213.937 128.266C213.762 128.266 213.591 128.22 213.439 128.134C213.323 128.069 213.22 127.983 213.137 127.878C213.054 127.774 212.992 127.654 212.955 127.526C212.919 127.398 212.907 127.264 212.923 127.131C212.938 126.999 212.979 126.87 213.043 126.754L236.683 84.7327C236.817 84.4985 237.04 84.3274 237.3 84.2569C237.561 84.1865 237.839 84.2225 238.073 84.3571C238.308 84.4917 238.479 84.7139 238.549 84.9746C238.62 85.2354 238.584 85.5135 238.449 85.7477L214.799 127.769C214.71 127.919 214.584 128.043 214.433 128.13C214.282 128.218 214.111 128.264 213.937 128.266Z" fill="#093F68"/>
<path d="M197.656 94.0504C197.487 94.0512 197.321 94.0099 197.172 93.9301C197.023 93.8504 196.896 93.7347 196.804 93.5937C195.778 91.8816 194.396 90.41 192.751 89.2787C191.107 88.1474 189.238 87.3828 187.273 87.0368C181.893 86.1233 175.143 88.3055 169.216 92.873C169.074 92.9846 168.906 93.0566 168.728 93.0816C168.549 93.1066 168.367 93.0836 168.201 93.0151C168.037 92.9505 167.893 92.8446 167.783 92.7075C167.673 92.5705 167.6 92.4072 167.572 92.2336C167.207 90.3906 166.327 88.6891 165.033 87.327C163.739 85.9649 162.085 84.9984 160.264 84.5399C158.389 84.1081 156.441 84.0972 154.562 84.5079C152.682 84.9186 150.917 85.7406 149.393 86.915C149.285 86.9939 149.163 87.0507 149.033 87.0822C148.903 87.1137 148.768 87.1192 148.636 87.0985C148.504 87.0777 148.377 87.0311 148.263 86.9613C148.149 86.8915 148.05 86.7999 147.972 86.6917C147.815 86.4758 147.749 86.2066 147.789 85.9425C147.829 85.6784 147.971 85.4406 148.185 85.2808C149.956 83.9294 152.003 82.9858 154.18 82.5173C156.358 82.0488 158.612 82.0671 160.781 82.5708C162.715 83.0792 164.495 84.0536 165.966 85.409C167.436 86.7644 168.552 88.4593 169.216 90.3457C175.306 86.0116 181.974 84.073 187.597 85.0271C189.843 85.4182 191.977 86.2866 193.858 87.5736C195.739 88.8606 197.321 90.5363 198.499 92.4873C198.597 92.6405 198.652 92.8174 198.659 92.9993C198.665 93.1813 198.623 93.3616 198.535 93.5215C198.448 93.6813 198.32 93.8147 198.163 93.9078C198.007 94.0008 197.828 94.0501 197.646 94.0504H197.656Z" fill="#093F68"/>
<path d="M184.918 114.056C184.676 114.056 184.442 113.97 184.258 113.812C174.93 105.956 161.085 110.422 160.913 110.463C160.658 110.547 160.381 110.526 160.142 110.407C159.902 110.287 159.72 110.077 159.634 109.824C159.591 109.697 159.573 109.563 159.582 109.43C159.591 109.296 159.626 109.166 159.686 109.046C159.745 108.926 159.828 108.819 159.929 108.732C160.029 108.644 160.147 108.577 160.273 108.534C160.882 108.342 175.326 103.673 185.537 112.26C185.698 112.393 185.814 112.573 185.868 112.774C185.923 112.976 185.915 113.19 185.844 113.386C185.773 113.583 185.643 113.753 185.471 113.872C185.3 113.992 185.096 114.056 184.887 114.056H184.918Z" fill="#093F68"/>
<path d="M245.271 132.509C245.013 132.509 244.765 132.412 244.577 132.237C244.388 132.062 244.274 131.821 244.256 131.565C244.233 130.932 244.076 130.31 243.796 129.742C243.516 129.173 243.119 128.67 242.632 128.266C240.947 126.875 237.932 126.317 234.349 126.733C234.182 126.752 234.014 126.729 233.858 126.667C233.702 126.605 233.564 126.504 233.457 126.376C233.349 126.247 233.275 126.094 233.241 125.929C233.208 125.765 233.215 125.595 233.263 125.434C233.749 123.825 233.871 122.128 233.618 120.466C233.366 118.804 232.746 117.219 231.804 115.826C230.862 114.434 229.621 113.269 228.172 112.417C226.723 111.565 225.102 111.046 223.428 110.899C223.159 110.875 222.91 110.745 222.737 110.538C222.564 110.33 222.48 110.062 222.504 109.793C222.528 109.524 222.659 109.275 222.866 109.102C223.073 108.929 223.341 108.845 223.61 108.869C225.463 109.03 227.261 109.577 228.89 110.475C230.518 111.374 231.94 112.603 233.065 114.084C234.189 115.565 234.991 117.265 235.419 119.075C235.846 120.885 235.89 122.764 235.547 124.592C238.064 124.46 241.546 124.724 243.921 126.693C244.622 127.271 245.195 127.99 245.602 128.802C246.01 129.615 246.242 130.504 246.286 131.413C246.295 131.546 246.278 131.68 246.236 131.807C246.194 131.934 246.127 132.051 246.039 132.152C245.952 132.253 245.845 132.335 245.725 132.395C245.605 132.454 245.475 132.49 245.342 132.499L245.271 132.509Z" fill="#093F68"/>
<path d="M235.172 133.524C234.924 133.526 234.684 133.437 234.497 133.275C234.31 133.112 234.189 132.886 234.157 132.641C233.847 130.53 232.905 128.563 231.456 126.998C230.007 125.432 228.118 124.342 226.037 123.871C225.906 123.843 225.782 123.79 225.672 123.714C225.562 123.639 225.468 123.542 225.395 123.43C225.323 123.317 225.273 123.192 225.249 123.06C225.225 122.929 225.227 122.794 225.255 122.663C225.283 122.532 225.336 122.408 225.412 122.298C225.488 122.188 225.585 122.094 225.697 122.022C225.809 121.949 225.935 121.899 226.066 121.875C226.198 121.851 226.333 121.853 226.463 121.882C228.945 122.454 231.196 123.762 232.922 125.634C234.648 127.507 235.768 129.857 236.136 132.377C236.171 132.643 236.098 132.912 235.935 133.126C235.771 133.339 235.53 133.478 235.263 133.514L235.172 133.524Z" fill="#093F68"/>
<path d="M231.234 44.5387C227.775 43.7435 224.187 43.685 220.703 44.367C217.22 45.049 213.919 46.4562 211.015 48.4972C202.479 54.3132 197.242 62.961 193.324 71.761C193.182 72.0889 193.155 72.4551 193.247 72.8002C193.34 73.1452 193.546 73.4489 193.833 73.6617C194.12 73.8746 194.471 73.9841 194.828 73.9726C195.185 73.961 195.528 73.8291 195.8 73.5982C198.781 70.7878 202.549 68.9536 206.6 68.3405C214.537 67.3864 217.856 70.7156 217.856 70.7156L231.234 44.5387Z" fill="#F56132"/>
<path d="M194.774 75.0192C194.22 75.0155 193.683 74.834 193.241 74.5015C192.751 74.1588 192.398 73.6543 192.244 73.0768C192.09 72.4993 192.145 71.886 192.398 71.3449C195.525 64.3211 200.803 54.2218 210.445 47.6547C213.471 45.5239 216.915 44.0601 220.55 43.3602C224.184 42.6603 227.926 42.7403 231.527 43.5947C231.668 43.6379 231.799 43.7117 231.909 43.8108C232.02 43.9098 232.107 44.0319 232.165 44.1683C232.223 44.3047 232.25 44.4522 232.245 44.6003C232.24 44.7485 232.203 44.8938 232.136 45.0259L218.758 71.2028C218.685 71.3473 218.58 71.4725 218.449 71.5679C218.318 71.6632 218.167 71.7259 218.007 71.7509C217.848 71.7741 217.687 71.7596 217.535 71.7084C217.383 71.6573 217.246 71.5709 217.134 71.4565C217.134 71.4565 213.987 68.5029 206.72 69.4265C202.872 69.9982 199.295 71.746 196.479 74.4305C196 74.8256 195.394 75.0347 194.774 75.0192ZM225.792 44.9244C220.718 44.9242 215.763 46.4637 211.582 49.3397C202.376 55.6022 197.281 65.3767 194.246 72.167C194.189 72.2876 194.177 72.4244 194.213 72.5528C194.248 72.6813 194.328 72.7928 194.439 72.8673C194.533 72.9522 194.656 72.9992 194.784 72.9992C194.911 72.9992 195.034 72.9522 195.129 72.8673C198.252 69.9044 202.216 67.9825 206.476 67.3661C212.343 66.6556 215.865 68.1882 217.489 69.2134L229.73 45.2797C228.43 45.0468 227.112 44.9279 225.792 44.9244Z" fill="#093F68"/>
<path d="M260.243 65.7218C262.052 68.7752 263.198 72.175 263.607 75.7003C264.017 79.2256 263.68 82.7976 262.618 86.1842C259.675 96.0906 253.017 103.703 245.83 110.108C245.563 110.352 245.22 110.497 244.858 110.518C244.497 110.539 244.139 110.435 243.845 110.222C243.552 110.01 243.341 109.703 243.248 109.353C243.154 109.003 243.185 108.631 243.334 108.301C245.105 104.611 245.704 100.466 245.049 96.4255C243.547 88.5694 239.375 86.4176 239.375 86.4176L260.243 65.7218Z" fill="#F56132"/>
<path d="M244.804 111.559C244.248 111.554 243.708 111.373 243.262 111.042C242.779 110.7 242.431 110.201 242.277 109.63C242.123 109.059 242.173 108.453 242.419 107.915C244.119 104.417 244.697 100.478 244.074 96.6387C242.703 89.4423 238.999 87.3616 238.928 87.3413C238.785 87.2674 238.663 87.1609 238.57 87.0306C238.477 86.9002 238.416 86.7497 238.392 86.5913C238.368 86.4329 238.382 86.2712 238.433 86.1193C238.484 85.9673 238.57 85.8296 238.684 85.7173L259.552 65.0214C259.658 64.9156 259.785 64.8344 259.925 64.7836C260.066 64.7327 260.216 64.7134 260.364 64.7271C260.512 64.7411 260.655 64.7875 260.783 64.8629C260.911 64.9384 261.021 65.041 261.105 65.1635C263.006 68.3375 264.212 71.8782 264.644 75.5523C265.076 79.2263 264.724 82.9502 263.612 86.4785C260.293 97.6435 252.275 105.764 246.53 110.839C246.066 111.287 245.45 111.544 244.804 111.559ZM240.968 86.3161C242.429 87.5544 244.957 90.4472 246.043 96.253C246.743 100.5 246.115 104.86 244.246 108.737C244.189 108.85 244.176 108.981 244.21 109.103C244.243 109.225 244.322 109.33 244.429 109.397C244.529 109.484 244.657 109.532 244.789 109.532C244.922 109.532 245.05 109.484 245.15 109.397C250.702 104.444 258.456 96.6184 261.633 85.9507C263.514 79.7875 262.939 73.1357 260.029 67.3864L240.968 86.3161Z" fill="#093F68"/>
<path d="M272.016 55.2267C260.232 71.355 248.864 81.4238 237.993 87.6458L217.125 72.4208C219.764 60.2408 225.895 46.2845 237.679 30.1663C241.923 24.3112 246.985 19.0951 252.711 14.6774C269.245 1.98991 285.292 1.03581 285.292 1.03581C285.292 1.03581 289.271 16.6161 282.197 36.2259C279.724 43.0114 276.296 49.4095 272.016 55.2267Z" fill="#FFBC0E"/>
<path d="M237.994 88.6608C237.777 88.6586 237.568 88.5875 237.395 88.4577L216.526 73.2327C216.371 73.1187 216.251 72.9626 216.181 72.7829C216.111 72.6031 216.093 72.4071 216.13 72.2178C219.084 58.566 225.864 44.6199 236.857 29.5878C241.158 23.6585 246.285 18.3744 252.082 13.8959C268.677 1.15761 284.562 0.0817087 285.222 0.0512587C285.452 0.0439655 285.678 0.115384 285.863 0.253752C286.047 0.39212 286.179 0.589188 286.237 0.812509C286.399 1.45196 290.205 16.9104 283.11 36.5913C280.611 43.4807 277.134 49.9754 272.788 55.8763C261.806 70.9186 250.569 81.6167 238.46 88.5694C238.314 88.6364 238.154 88.6677 237.994 88.6608ZM218.262 71.964L238.054 86.4277C249.697 79.6069 260.547 69.1728 271.194 54.6278C275.42 48.8787 278.804 42.5557 281.243 35.8503C285.24 25.0778 286.36 13.449 284.491 2.11171C273.123 3.7788 262.384 8.37507 253.33 15.4488C247.682 19.812 242.685 24.9592 238.491 30.7347C227.844 45.3 221.226 58.7994 218.262 71.964Z" fill="#093F68"/>
<path d="M233.863 97.2984L209.178 79.2618L217.145 72.4106L237.973 87.6255L233.863 97.2984Z" fill="#093F68"/>
<path d="M233.873 98.3134C233.658 98.3142 233.448 98.2466 233.274 98.1205L208.579 80.084C208.459 79.9898 208.36 79.8717 208.289 79.7371C208.217 79.6025 208.174 79.4545 208.163 79.3025C208.157 79.1491 208.186 78.9963 208.247 78.8556C208.309 78.715 208.401 78.5901 208.518 78.4905L216.486 71.6392C216.666 71.4951 216.89 71.4165 217.12 71.4165C217.351 71.4165 217.575 71.4951 217.755 71.6392L238.572 86.8642C238.758 86.9995 238.892 87.1936 238.952 87.4147C239.013 87.6359 238.997 87.8712 238.907 88.0822L234.847 97.7551C234.787 97.8959 234.695 98.0211 234.579 98.1213C234.463 98.2215 234.325 98.2941 234.177 98.3337C234.075 98.3458 233.972 98.3389 233.873 98.3134ZM210.812 79.1908L233.436 95.7251L236.725 87.9705L217.207 73.6996L210.812 79.1908Z" fill="#093F68"/>
<path d="M255.919 52.2629C262.023 52.2629 266.972 47.3141 266.972 41.2095C266.972 35.1049 262.023 30.1562 255.919 30.1562C249.814 30.1562 244.865 35.1049 244.865 41.2095C244.865 47.3141 249.814 52.2629 255.919 52.2629Z" fill="#68E1FD"/>
<path d="M255.898 53.2778C253.187 53.2725 250.556 52.3542 248.43 50.671C246.304 48.9878 244.807 46.6378 244.181 43.9999C243.554 41.3619 243.833 38.5897 244.975 36.1301C246.116 33.6705 248.052 31.6669 250.471 30.4423C252.89 29.2176 255.651 28.8433 258.309 29.3796C260.967 29.916 263.367 31.3318 265.122 33.3987C266.877 35.4656 267.884 38.0633 267.982 40.773C268.08 43.4826 267.263 46.1464 265.662 48.3348C264.541 49.8717 263.072 51.1209 261.374 51.9801C259.677 52.8393 257.8 53.2841 255.898 53.2778ZM255.969 31.2118C253.582 31.2105 251.273 32.0607 249.457 33.6096C247.64 35.1584 246.436 37.3044 246.06 39.6616C245.685 42.0189 246.162 44.4329 247.407 46.4696C248.652 48.5063 250.582 50.0322 252.851 50.773C255.121 51.5138 257.58 51.4209 259.786 50.511C261.993 49.601 263.803 47.9338 264.891 45.8089C265.978 43.6841 266.272 41.241 265.72 38.9188C265.167 36.5966 263.804 34.5476 261.876 33.1403C260.161 31.8888 258.093 31.2136 255.969 31.2118Z" fill="#093F68"/>
<path d="M282.197 36.1954L252.762 14.647C269.296 1.95946 285.343 1.00536 285.343 1.00536C285.343 1.00536 289.271 16.5856 282.197 36.1954Z" fill="#F56132"/>
<path d="M282.196 37.2104C281.981 37.2072 281.773 37.1401 281.597 37.0176L252.111 15.4691C251.985 15.3746 251.883 15.252 251.812 15.111C251.742 14.9701 251.705 14.8147 251.705 14.6571C251.705 14.4995 251.742 14.3441 251.812 14.2032C251.883 14.0622 251.985 13.9397 252.111 13.8451C268.706 1.10686 284.591 0.030958 285.251 0.000507999C285.481 -0.00678519 285.707 0.0646334 285.892 0.203002C286.076 0.34137 286.208 0.538438 286.266 0.761758C286.428 1.40121 290.234 16.8597 283.14 36.5405C283.087 36.6885 283.002 36.8223 282.889 36.9315C282.776 37.0407 282.64 37.1223 282.49 37.1698C282.394 37.1977 282.295 37.2114 282.196 37.2104ZM254.415 14.6368L281.688 34.5714C285.32 24.1487 286.284 12.9821 284.49 2.09141C273.573 3.69277 263.233 8.00613 254.415 14.6368Z" fill="#093F68"/>
<path d="M245.378 59.4946C246.125 58.4718 245.904 57.0379 244.883 56.2921C243.863 55.5462 242.429 55.7708 241.682 56.7936L217.361 90.0728C216.613 91.0957 216.834 92.5295 217.855 93.2754C218.876 94.0212 220.309 93.7967 221.056 92.7738L245.378 59.4946Z" fill="#FFBC0E"/>
<path d="M219.216 94.7305C218.607 94.7277 218.01 94.5568 217.491 94.2364C216.973 93.9161 216.553 93.4588 216.278 92.915C216.003 92.3713 215.884 91.7621 215.933 91.1547C215.982 90.5473 216.198 89.9652 216.557 89.4728L240.917 56.1909C241.168 55.8373 241.488 55.5381 241.858 55.3113C242.228 55.0846 242.639 54.9349 243.068 54.8714C243.715 54.7674 244.379 54.8584 244.974 55.1329C245.569 55.4074 246.069 55.8529 246.41 56.4126C246.751 56.9723 246.917 57.6209 246.888 58.2756C246.858 58.9303 246.635 59.5614 246.245 60.0885L221.885 93.3704C221.368 94.0787 220.59 94.5531 219.723 94.6899C219.555 94.7131 219.386 94.7266 219.216 94.7305ZM243.576 56.8608H243.373C243.207 56.8881 243.048 56.9479 242.905 57.0367C242.762 57.1256 242.639 57.2417 242.541 57.3785L218.181 90.6603C218.082 90.7948 218.01 90.9476 217.971 91.1097C217.931 91.2719 217.923 91.4403 217.949 91.6053C217.974 91.7703 218.032 91.9287 218.119 92.0714C218.206 92.214 218.32 92.3381 218.455 92.4366C218.728 92.6369 219.07 92.7205 219.405 92.6691C219.74 92.6177 220.04 92.4355 220.241 92.1625L244.601 58.8807C244.742 58.6922 244.829 58.468 244.85 58.2333C244.871 57.9987 244.826 57.7628 244.721 57.552C244.616 57.3413 244.454 57.164 244.253 57.0401C244.053 56.9163 243.822 56.8507 243.586 56.8507L243.576 56.8608Z" fill="#093F68"/>
<path d="M260.758 48.3754C260.54 48.3748 260.327 48.3035 260.152 48.1721C259.977 48.0407 259.849 47.8563 259.787 47.6462C259.726 47.4362 259.733 47.2119 259.81 47.0067C259.886 46.8016 260.027 46.6266 260.21 46.5078C261.257 45.6153 262.034 44.4482 262.454 43.138C263.641 39.9306 261.185 37.18 261.083 37.048C260.9 36.8502 260.803 36.5877 260.814 36.3183C260.824 36.049 260.941 35.7948 261.139 35.6118C261.337 35.4287 261.599 35.3318 261.869 35.3422C262.138 35.3527 262.392 35.4698 262.575 35.6676C262.717 35.8199 265.986 39.4231 264.352 43.7876C263.797 45.5146 262.736 47.0352 261.307 48.1521C261.15 48.2793 260.959 48.3571 260.758 48.3754Z" fill="white"/>
<path d="M256.861 50.2227C256.592 50.2389 256.327 50.1474 256.125 49.9685C255.924 49.7896 255.801 49.5378 255.785 49.2686C255.769 48.9994 255.86 48.7348 256.039 48.5331C256.218 48.3313 256.47 48.2089 256.739 48.1927C257.398 48.0764 258.042 47.8857 258.657 47.6243C258.901 47.5329 259.17 47.5383 259.409 47.6394C259.649 47.7406 259.84 47.9297 259.944 48.1679C260.049 48.4061 260.057 48.6751 259.969 48.9196C259.881 49.164 259.702 49.3652 259.469 49.4818C258.676 49.8223 257.844 50.0677 256.993 50.2126L256.861 50.2227Z" fill="white"/>
<path d="M143.07 67.8431C142.849 67.847 142.634 67.7789 142.455 67.6491C142.277 67.5193 142.145 67.3349 142.081 67.1238C142.017 66.9127 142.023 66.6864 142.099 66.4792C142.175 66.272 142.316 66.0952 142.502 65.9755L147.211 62.8595C147.322 62.7851 147.447 62.7335 147.578 62.7076C147.71 62.6816 147.845 62.6819 147.976 62.7083C148.107 62.7347 148.231 62.7868 148.342 62.8615C148.453 62.9362 148.548 63.0321 148.622 63.1437C148.769 63.3674 148.822 63.6402 148.768 63.9025C148.715 64.1648 148.56 64.3955 148.338 64.5444L143.628 67.6706C143.463 67.7816 143.269 67.8416 143.07 67.8431Z" fill="#DFEAEF"/>
<path d="M145.588 71.1013C145.422 71.1015 145.258 71.0609 145.111 70.983C144.964 70.9052 144.838 70.7924 144.745 70.6547C144.671 70.5435 144.619 70.4187 144.593 70.2875C144.568 70.1563 144.568 70.0213 144.594 69.8902C144.621 69.759 144.673 69.6345 144.747 69.5235C144.822 69.4126 144.918 69.3175 145.03 69.2438L149.242 66.4424C149.467 66.293 149.742 66.239 150.006 66.2923C150.271 66.3456 150.503 66.5018 150.653 66.7266C150.802 66.9514 150.856 67.2263 150.803 67.4909C150.749 67.7555 150.593 67.988 150.368 68.1375L146.156 70.9389C145.987 71.0482 145.789 71.1047 145.588 71.1013Z" fill="#DFEAEF"/>
<path d="M147.911 74.3797C147.695 74.378 147.484 74.307 147.31 74.1769C147.137 74.0468 147.01 73.8646 146.947 73.6569C146.885 73.4492 146.891 73.227 146.964 73.0228C147.037 72.8186 147.173 72.6432 147.353 72.5223L151.565 69.7209C151.676 69.6379 151.802 69.5783 151.936 69.5457C152.07 69.5131 152.209 69.5082 152.346 69.5313C152.482 69.5545 152.612 69.6051 152.727 69.6801C152.843 69.7552 152.943 69.8531 153.019 69.9678C153.096 70.0826 153.149 70.2118 153.174 70.3475C153.199 70.4832 153.196 70.6226 153.165 70.7572C153.135 70.8918 153.077 71.0187 152.996 71.1303C152.914 71.2418 152.811 71.3355 152.692 71.4058L148.48 74.2072C148.312 74.3201 148.114 74.3802 147.911 74.3797Z" fill="#DFEAEF"/>
<path d="M165.36 57.0841C165.142 57.0814 164.93 57.0085 164.757 56.8763C164.584 56.7441 164.457 56.5596 164.397 56.3501C164.337 56.1406 164.345 55.9172 164.422 55.7131C164.498 55.5089 164.639 55.3348 164.822 55.2165L196.084 35.3936C196.196 35.3222 196.322 35.2738 196.453 35.251C196.585 35.2283 196.719 35.2316 196.849 35.2608C196.979 35.29 197.102 35.3446 197.211 35.4213C197.32 35.4981 197.413 35.5956 197.485 35.7082C197.556 35.8208 197.604 35.9464 197.627 36.0778C197.65 36.2091 197.647 36.3437 197.617 36.4737C197.588 36.6038 197.534 36.7268 197.457 36.8358C197.38 36.9448 197.283 37.0376 197.17 37.1089L165.908 56.9319C165.743 57.0338 165.553 57.0866 165.36 57.0841Z" fill="#DFEAEF"/>
<path d="M215.368 137.381C215.298 137.391 215.226 137.391 215.155 137.381C214.893 137.322 214.665 137.163 214.52 136.936C214.375 136.71 214.326 136.435 214.384 136.173C215.917 129.068 209.218 125.059 208.933 124.886C208.712 124.746 208.554 124.525 208.492 124.271C208.43 124.017 208.468 123.748 208.599 123.522C208.73 123.295 208.944 123.128 209.195 123.055C209.447 122.982 209.716 123.009 209.948 123.13C210.03 123.181 218.21 128.053 216.353 136.609C216.299 136.829 216.172 137.025 215.994 137.165C215.815 137.305 215.595 137.381 215.368 137.381Z" fill="#093F68"/>
<path d="M14.328 246.045C11.832 246.045 9.636 245.505 7.74 244.425C5.868 243.321 4.404 241.785 3.348 239.817C2.316 237.849 1.8 235.557 1.8 232.941C1.8 230.949 2.088 229.161 2.664 227.577C3.264 225.969 4.116 224.601 5.22 223.473C6.324 222.321 7.644 221.433 9.18 220.809C10.74 220.185 12.456 219.873 14.328 219.873C16.872 219.873 19.08 220.413 20.952 221.493C22.824 222.573 24.276 224.097 25.308 226.065C26.364 228.009 26.892 230.289 26.892 232.905C26.892 234.897 26.592 236.697 25.992 238.305C25.392 239.913 24.54 241.293 23.436 242.445C22.332 243.597 21.012 244.485 19.476 245.109C17.94 245.733 16.224 246.045 14.328 246.045ZM14.328 241.293C15.744 241.293 16.944 240.969 17.928 240.321C18.936 239.649 19.704 238.689 20.232 237.441C20.784 236.169 21.06 234.669 21.06 232.941C21.06 230.301 20.472 228.261 19.296 226.821C18.12 225.357 16.464 224.625 14.328 224.625C12.936 224.625 11.736 224.949 10.728 225.597C9.72 226.245 8.952 227.193 8.424 228.441C7.896 229.689 7.632 231.189 7.632 232.941C7.632 235.557 8.22 237.609 9.396 239.097C10.572 240.561 12.216 241.293 14.328 241.293ZM33.4763 245.973C32.5883 245.973 31.9043 245.733 31.4243 245.253C30.9683 244.773 30.7403 244.089 30.7403 243.201V230.421C30.7403 229.533 30.9683 228.861 31.4243 228.405C31.9043 227.925 32.5643 227.685 33.4043 227.685C34.2683 227.685 34.9283 227.925 35.3843 228.405C35.8403 228.861 36.0683 229.533 36.0683 230.421V232.473L35.6723 231.285C36.2243 230.109 37.0403 229.209 38.1203 228.585C39.2243 227.937 40.4723 227.613 41.8643 227.613C43.2803 227.613 44.4443 227.889 45.3563 228.441C46.2683 228.969 46.9523 229.785 47.4083 230.889C47.8643 231.969 48.0923 233.349 48.0923 235.029V243.201C48.0923 244.089 47.8523 244.773 47.3723 245.253C46.9163 245.733 46.2443 245.973 45.3563 245.973C44.4923 245.973 43.8203 245.733 43.3403 245.253C42.8843 244.773 42.6563 244.089 42.6563 243.201V235.281C42.6563 234.057 42.4283 233.181 41.9723 232.653C41.5403 232.101 40.8683 231.825 39.9563 231.825C38.8043 231.825 37.8803 232.185 37.1843 232.905C36.5123 233.625 36.1763 234.585 36.1763 235.785V243.201C36.1763 245.049 35.2763 245.973 33.4763 245.973ZM63.0585 246.045C61.6425 246.045 60.3825 245.697 59.2785 245.001C58.1985 244.281 57.4785 243.333 57.1185 242.157L57.5145 240.969V243.201C57.5145 244.089 57.2865 244.773 56.8305 245.253C56.3745 245.733 55.7145 245.973 54.8505 245.973C53.9865 245.973 53.3145 245.733 52.8345 245.253C52.3785 244.773 52.1505 244.089 52.1505 243.201V222.717C52.1505 221.805 52.3785 221.121 52.8345 220.665C53.3145 220.185 53.9985 219.945 54.8865 219.945C55.7505 219.945 56.4105 220.185 56.8665 220.665C57.3465 221.121 57.5865 221.805 57.5865 222.717V231.249H57.1545C57.5385 230.169 58.2705 229.293 59.3505 228.621C60.4305 227.949 61.6665 227.613 63.0585 227.613C64.6185 227.613 65.9745 227.985 67.1265 228.729C68.2785 229.473 69.1785 230.529 69.8265 231.897C70.4745 233.265 70.7985 234.897 70.7985 236.793C70.7985 238.689 70.4745 240.333 69.8265 241.725C69.1785 243.117 68.2665 244.185 67.0905 244.929C65.9385 245.673 64.5945 246.045 63.0585 246.045ZM61.4385 241.977C62.2065 241.977 62.8785 241.785 63.4545 241.401C64.0545 241.017 64.5105 240.453 64.8225 239.709C65.1585 238.941 65.3265 237.969 65.3265 236.793C65.3265 235.041 64.9665 233.757 64.2465 232.941C63.5265 232.101 62.5905 231.681 61.4385 231.681C60.6705 231.681 59.9865 231.861 59.3865 232.221C58.8105 232.581 58.3545 233.145 58.0185 233.913C57.6825 234.657 57.5145 235.617 57.5145 236.793C57.5145 238.545 57.8745 239.853 58.5945 240.717C59.3145 241.557 60.2625 241.977 61.4385 241.977ZM82.6192 246.045C80.7232 246.045 79.0672 245.673 77.6512 244.929C76.2592 244.185 75.1792 243.117 74.4112 241.725C73.6432 240.333 73.2592 238.689 73.2592 236.793C73.2592 235.377 73.4752 234.105 73.9072 232.977C74.3392 231.849 74.9632 230.889 75.7792 230.097C76.6192 229.281 77.6152 228.669 78.7672 228.261C79.9192 227.829 81.2032 227.613 82.6192 227.613C84.5152 227.613 86.1592 227.985 87.5512 228.729C88.9672 229.473 90.0592 230.529 90.8272 231.897C91.6192 233.265 92.0152 234.897 92.0152 236.793C92.0152 238.233 91.7872 239.517 91.3312 240.645C90.8992 241.773 90.2752 242.745 89.4592 243.561C88.6432 244.377 87.6472 245.001 86.4712 245.433C85.3192 245.841 84.0352 246.045 82.6192 246.045ZM82.6192 241.977C83.4112 241.977 84.0952 241.785 84.6712 241.401C85.2472 241.017 85.7032 240.453 86.0392 239.709C86.3752 238.941 86.5432 237.969 86.5432 236.793C86.5432 235.041 86.1832 233.757 85.4632 232.941C84.7432 232.101 83.7952 231.681 82.6192 231.681C81.8512 231.681 81.1672 231.861 80.5672 232.221C79.9912 232.581 79.5352 233.145 79.1992 233.913C78.8872 234.657 78.7312 235.617 78.7312 236.793C78.7312 238.545 79.0912 239.853 79.8112 240.717C80.5312 241.557 81.4672 241.977 82.6192 241.977ZM101.298 246.045C100.002 246.045 98.8384 245.793 97.8064 245.289C96.7744 244.785 95.9704 244.101 95.3944 243.237C94.8184 242.373 94.5304 241.401 94.5304 240.321C94.5304 239.025 94.8664 238.005 95.5384 237.261C96.2104 236.493 97.3024 235.953 98.8144 235.641C100.326 235.305 102.33 235.137 104.826 235.137H106.734V237.945H104.862C103.638 237.945 102.642 238.017 101.874 238.161C101.13 238.281 100.59 238.497 100.254 238.809C99.9424 239.121 99.7864 239.553 99.7864 240.105C99.7864 240.777 100.014 241.329 100.47 241.761C100.95 242.193 101.634 242.409 102.522 242.409C103.218 242.409 103.83 242.253 104.358 241.941C104.91 241.605 105.342 241.161 105.654 240.609C105.966 240.033 106.122 239.385 106.122 238.665V234.525C106.122 233.469 105.882 232.725 105.402 232.293C104.922 231.837 104.106 231.609 102.954 231.609C102.306 231.609 101.598 231.693 100.83 231.861C100.086 232.005 99.2584 232.257 98.3464 232.617C97.8184 232.857 97.3504 232.917 96.9424 232.797C96.5344 232.653 96.2224 232.413 96.0064 232.077C95.7904 231.717 95.6824 231.333 95.6824 230.925C95.6824 230.493 95.8024 230.085 96.0424 229.701C96.2824 229.293 96.6784 228.993 97.2304 228.801C98.3584 228.345 99.4144 228.033 100.398 227.865C101.406 227.697 102.33 227.613 103.17 227.613C105.018 227.613 106.53 227.889 107.706 228.441C108.906 228.969 109.806 229.797 110.406 230.925C111.006 232.029 111.306 233.457 111.306 235.209V243.201C111.306 244.089 111.09 244.773 110.658 245.253C110.226 245.733 109.602 245.973 108.786 245.973C107.97 245.973 107.334 245.733 106.878 245.253C106.446 244.773 106.23 244.089 106.23 243.201V241.869L106.482 242.085C106.338 242.901 106.026 243.609 105.546 244.209C105.09 244.785 104.502 245.241 103.782 245.577C103.062 245.889 102.234 246.045 101.298 246.045ZM118.169 245.973C117.257 245.973 116.561 245.733 116.081 245.253C115.601 244.773 115.361 244.089 115.361 243.201V230.421C115.361 229.533 115.589 228.861 116.045 228.405C116.525 227.925 117.185 227.685 118.025 227.685C118.889 227.685 119.549 227.925 120.005 228.405C120.461 228.861 120.689 229.533 120.689 230.421V232.293H120.329C120.617 230.853 121.253 229.737 122.237 228.945C123.221 228.153 124.493 227.709 126.053 227.613C126.653 227.565 127.109 227.721 127.421 228.081C127.757 228.417 127.937 228.981 127.961 229.773C128.009 230.517 127.853 231.105 127.493 231.537C127.157 231.969 126.581 232.233 125.765 232.329L124.937 232.401C123.569 232.521 122.549 232.917 121.877 233.589C121.229 234.261 120.905 235.233 120.905 236.505V243.201C120.905 244.089 120.665 244.773 120.185 245.253C119.729 245.733 119.057 245.973 118.169 245.973ZM136.757 246.045C135.221 246.045 133.865 245.673 132.689 244.929C131.537 244.185 130.637 243.117 129.989 241.725C129.341 240.333 129.017 238.689 129.017 236.793C129.017 234.897 129.341 233.265 129.989 231.897C130.637 230.529 131.537 229.473 132.689 228.729C133.865 227.985 135.221 227.613 136.757 227.613C138.149 227.613 139.373 227.949 140.429 228.621C141.509 229.293 142.241 230.169 142.625 231.249H142.229V222.717C142.229 221.805 142.457 221.121 142.913 220.665C143.369 220.185 144.041 219.945 144.929 219.945C145.793 219.945 146.465 220.185 146.945 220.665C147.425 221.121 147.665 221.805 147.665 222.717V243.201C147.665 244.089 147.425 244.773 146.945 245.253C146.489 245.733 145.829 245.973 144.965 245.973C144.101 245.973 143.429 245.733 142.949 245.253C142.493 244.773 142.265 244.089 142.265 243.201V240.753L142.661 242.157C142.325 243.333 141.605 244.281 140.501 245.001C139.421 245.697 138.173 246.045 136.757 246.045ZM138.377 241.977C139.169 241.977 139.853 241.785 140.429 241.401C141.005 241.017 141.461 240.453 141.797 239.709C142.133 238.941 142.301 237.969 142.301 236.793C142.301 235.041 141.941 233.757 141.221 232.941C140.501 232.101 139.553 231.681 138.377 231.681C137.609 231.681 136.925 231.861 136.325 232.221C135.749 232.581 135.293 233.145 134.957 233.913C134.645 234.657 134.489 235.617 134.489 236.793C134.489 238.545 134.849 239.853 135.569 240.717C136.289 241.557 137.225 241.977 138.377 241.977ZM154.59 245.937C153.702 245.937 153.018 245.685 152.538 245.181C152.082 244.653 151.854 243.921 151.854 242.985V230.673C151.854 229.713 152.082 228.981 152.538 228.477C153.018 227.949 153.702 227.685 154.59 227.685C155.454 227.685 156.114 227.949 156.57 228.477C157.05 228.981 157.29 229.713 157.29 230.673V242.985C157.29 243.921 157.062 244.653 156.606 245.181C156.15 245.685 155.478 245.937 154.59 245.937ZM154.59 224.733C153.582 224.733 152.802 224.505 152.25 224.049C151.722 223.569 151.458 222.897 151.458 222.033C151.458 221.145 151.722 220.473 152.25 220.017C152.802 219.537 153.582 219.297 154.59 219.297C155.598 219.297 156.366 219.537 156.894 220.017C157.422 220.473 157.686 221.145 157.686 222.033C157.686 222.897 157.422 223.569 156.894 224.049C156.366 224.505 155.598 224.733 154.59 224.733ZM164.222 245.973C163.334 245.973 162.65 245.733 162.17 245.253C161.714 244.773 161.486 244.089 161.486 243.201V230.421C161.486 229.533 161.714 228.861 162.17 228.405C162.65 227.925 163.31 227.685 164.15 227.685C165.014 227.685 165.674 227.925 166.13 228.405C166.586 228.861 166.814 229.533 166.814 230.421V232.473L166.418 231.285C166.97 230.109 167.786 229.209 168.866 228.585C169.97 227.937 171.218 227.613 172.61 227.613C174.026 227.613 175.19 227.889 176.102 228.441C177.014 228.969 177.698 229.785 178.154 230.889C178.61 231.969 178.838 233.349 178.838 235.029V243.201C178.838 244.089 178.598 244.773 178.118 245.253C177.662 245.733 176.99 245.973 176.102 245.973C175.238 245.973 174.566 245.733 174.086 245.253C173.63 244.773 173.402 244.089 173.402 243.201V235.281C173.402 234.057 173.174 233.181 172.718 232.653C172.286 232.101 171.614 231.825 170.702 231.825C169.55 231.825 168.626 232.185 167.93 232.905C167.258 233.625 166.922 234.585 166.922 235.785V243.201C166.922 245.049 166.022 245.973 164.222 245.973ZM191.393 252.525C190.097 252.525 188.849 252.417 187.649 252.201C186.473 251.985 185.429 251.661 184.517 251.229C183.965 250.989 183.569 250.677 183.329 250.293C183.113 249.909 183.017 249.501 183.041 249.069C183.089 248.637 183.233 248.253 183.473 247.917C183.737 247.581 184.061 247.341 184.445 247.197C184.829 247.077 185.237 247.113 185.669 247.305C186.725 247.785 187.697 248.097 188.585 248.241C189.497 248.385 190.277 248.457 190.925 248.457C192.461 248.457 193.613 248.109 194.381 247.413C195.149 246.717 195.533 245.649 195.533 244.209V241.473H195.857C195.497 242.577 194.753 243.477 193.625 244.173C192.497 244.869 191.249 245.217 189.881 245.217C188.297 245.217 186.917 244.857 185.741 244.137C184.565 243.393 183.653 242.361 183.005 241.041C182.357 239.697 182.033 238.149 182.033 236.397C182.033 235.077 182.213 233.877 182.573 232.797C182.957 231.717 183.485 230.793 184.157 230.025C184.853 229.257 185.681 228.669 186.641 228.261C187.625 227.829 188.705 227.613 189.881 227.613C191.297 227.613 192.545 227.961 193.625 228.657C194.729 229.329 195.461 230.217 195.821 231.321L195.461 232.473V230.421C195.461 229.533 195.689 228.861 196.145 228.405C196.625 227.925 197.297 227.685 198.161 227.685C199.025 227.685 199.685 227.925 200.141 228.405C200.597 228.861 200.825 229.533 200.825 230.421V243.597C200.825 246.549 200.009 248.769 198.377 250.257C196.769 251.769 194.441 252.525 191.393 252.525ZM191.501 241.149C192.317 241.149 193.013 240.957 193.589 240.573C194.189 240.189 194.657 239.649 194.993 238.953C195.329 238.233 195.497 237.381 195.497 236.397C195.497 234.909 195.125 233.757 194.381 232.941C193.661 232.101 192.701 231.681 191.501 231.681C190.685 231.681 189.977 231.873 189.377 232.257C188.777 232.617 188.309 233.157 187.973 233.877C187.661 234.573 187.505 235.413 187.505 236.397C187.505 237.885 187.865 239.049 188.585 239.889C189.305 240.729 190.277 241.149 191.501 241.149ZM223.704 246.045C221.784 246.045 220.104 245.673 218.664 244.929C217.248 244.161 216.156 243.081 215.388 241.689C214.62 240.297 214.236 238.653 214.236 236.757C214.236 235.341 214.452 234.069 214.884 232.941C215.316 231.813 215.94 230.853 216.756 230.061C217.596 229.269 218.604 228.669 219.78 228.261C220.956 227.829 222.264 227.613 223.704 227.613C224.448 227.613 225.24 227.709 226.08 227.901C226.92 228.069 227.748 228.369 228.564 228.801C229.044 229.017 229.368 229.329 229.536 229.737C229.728 230.121 229.8 230.529 229.752 230.961C229.704 231.369 229.548 231.741 229.284 232.077C229.044 232.389 228.732 232.605 228.348 232.725C227.964 232.821 227.532 232.749 227.052 232.509C226.596 232.245 226.116 232.053 225.612 231.933C225.132 231.813 224.676 231.753 224.244 231.753C223.524 231.753 222.888 231.873 222.336 232.113C221.784 232.329 221.316 232.653 220.932 233.085C220.572 233.493 220.284 234.009 220.068 234.633C219.876 235.257 219.78 235.977 219.78 236.793C219.78 238.377 220.164 239.625 220.932 240.537C221.724 241.425 222.828 241.869 224.244 241.869C224.676 241.869 225.132 241.821 225.612 241.725C226.092 241.605 226.572 241.413 227.052 241.149C227.532 240.909 227.964 240.849 228.348 240.969C228.732 241.089 229.032 241.317 229.248 241.653C229.488 241.965 229.62 242.337 229.644 242.769C229.692 243.177 229.62 243.585 229.428 243.993C229.26 244.377 228.948 244.677 228.492 244.893C227.676 245.301 226.86 245.589 226.044 245.757C225.228 245.949 224.448 246.045 223.704 246.045ZM240.436 246.045C238.54 246.045 236.884 245.673 235.468 244.929C234.076 244.185 232.996 243.117 232.228 241.725C231.46 240.333 231.076 238.689 231.076 236.793C231.076 235.377 231.292 234.105 231.724 232.977C232.156 231.849 232.78 230.889 233.596 230.097C234.436 229.281 235.432 228.669 236.584 228.261C237.736 227.829 239.02 227.613 240.436 227.613C242.332 227.613 243.976 227.985 245.368 228.729C246.784 229.473 247.876 230.529 248.644 231.897C249.436 233.265 249.832 234.897 249.832 236.793C249.832 238.233 249.604 239.517 249.148 240.645C248.716 241.773 248.092 242.745 247.276 243.561C246.46 244.377 245.464 245.001 244.288 245.433C243.136 245.841 241.852 246.045 240.436 246.045ZM240.436 241.977C241.228 241.977 241.912 241.785 242.488 241.401C243.064 241.017 243.52 240.453 243.856 239.709C244.192 238.941 244.36 237.969 244.36 236.793C244.36 235.041 244 233.757 243.28 232.941C242.56 232.101 241.612 231.681 240.436 231.681C239.668 231.681 238.984 231.861 238.384 232.221C237.808 232.581 237.352 233.145 237.016 233.913C236.704 234.657 236.548 235.617 236.548 236.793C236.548 238.545 236.908 239.853 237.628 240.717C238.348 241.557 239.284 241.977 240.436 241.977ZM255.947 245.973C255.059 245.973 254.375 245.733 253.895 245.253C253.439 244.773 253.211 244.089 253.211 243.201V230.421C253.211 229.533 253.439 228.861 253.895 228.405C254.375 227.925 255.035 227.685 255.875 227.685C256.739 227.685 257.399 227.925 257.855 228.405C258.311 228.861 258.539 229.533 258.539 230.421V232.725L258.143 231.285C258.623 230.181 259.367 229.293 260.375 228.621C261.383 227.949 262.571 227.613 263.939 227.613C265.307 227.613 266.447 227.937 267.359 228.585C268.271 229.233 268.919 230.229 269.303 231.573H268.799C269.327 230.349 270.131 229.389 271.211 228.693C272.315 227.973 273.575 227.613 274.991 227.613C276.359 227.613 277.475 227.889 278.339 228.441C279.227 228.969 279.887 229.785 280.319 230.889C280.751 231.969 280.967 233.349 280.967 235.029V243.201C280.967 244.089 280.727 244.773 280.247 245.253C279.791 245.733 279.131 245.973 278.267 245.973C277.379 245.973 276.695 245.733 276.215 245.253C275.759 244.773 275.531 244.089 275.531 243.201V235.209C275.531 234.033 275.339 233.181 274.955 232.653C274.595 232.101 273.971 231.825 273.083 231.825C272.051 231.825 271.247 232.185 270.671 232.905C270.095 233.625 269.807 234.645 269.807 235.965V243.201C269.807 244.089 269.567 244.773 269.087 245.253C268.631 245.733 267.971 245.973 267.107 245.973C266.243 245.973 265.571 245.733 265.091 245.253C264.611 244.773 264.371 244.089 264.371 243.201V235.209C264.371 234.033 264.179 233.181 263.795 232.653C263.435 232.101 262.811 231.825 261.923 231.825C260.891 231.825 260.087 232.185 259.511 232.905C258.935 233.625 258.647 234.645 258.647 235.965V243.201C258.647 245.049 257.747 245.973 255.947 245.973ZM287.867 252.453C286.979 252.453 286.295 252.213 285.815 251.733C285.359 251.277 285.131 250.593 285.131 249.681V230.421C285.131 229.533 285.359 228.861 285.815 228.405C286.295 227.925 286.955 227.685 287.795 227.685C288.683 227.685 289.355 227.925 289.811 228.405C290.267 228.861 290.495 229.533 290.495 230.421V232.869L290.099 231.465C290.459 230.313 291.179 229.389 292.259 228.693C293.363 227.973 294.623 227.613 296.039 227.613C297.575 227.613 298.919 227.985 300.071 228.729C301.247 229.473 302.159 230.529 302.807 231.897C303.455 233.265 303.779 234.897 303.779 236.793C303.779 238.689 303.455 240.333 302.807 241.725C302.159 243.117 301.259 244.185 300.107 244.929C298.955 245.673 297.599 246.045 296.039 246.045C294.647 246.045 293.411 245.709 292.331 245.037C291.251 244.341 290.519 243.441 290.135 242.337H290.567V249.681C290.567 250.593 290.327 251.277 289.847 251.733C289.391 252.213 288.731 252.453 287.867 252.453ZM294.419 241.977C295.187 241.977 295.859 241.785 296.435 241.401C297.035 241.017 297.491 240.453 297.803 239.709C298.139 238.941 298.307 237.969 298.307 236.793C298.307 235.041 297.947 233.757 297.227 232.941C296.507 232.101 295.571 231.681 294.419 231.681C293.651 231.681 292.967 231.861 292.367 232.221C291.791 232.581 291.335 233.145 290.999 233.913C290.663 234.657 290.495 235.617 290.495 236.793C290.495 238.545 290.855 239.853 291.575 240.717C292.295 241.557 293.243 241.977 294.419 241.977ZM313.476 246.045C311.34 246.045 309.744 245.457 308.688 244.281C307.632 243.081 307.104 241.305 307.104 238.953V222.717C307.104 221.805 307.332 221.121 307.788 220.665C308.268 220.185 308.952 219.945 309.84 219.945C310.704 219.945 311.364 220.185 311.82 220.665C312.3 221.121 312.54 221.805 312.54 222.717V238.737C312.54 239.721 312.744 240.453 313.152 240.933C313.584 241.389 314.148 241.617 314.844 241.617C315.036 241.617 315.216 241.605 315.384 241.581C315.552 241.557 315.732 241.545 315.924 241.545C316.308 241.497 316.572 241.617 316.716 241.905C316.884 242.169 316.968 242.709 316.968 243.525C316.968 244.245 316.824 244.797 316.536 245.181C316.248 245.541 315.804 245.781 315.204 245.901C314.964 245.925 314.688 245.949 314.376 245.973C314.064 246.021 313.764 246.045 313.476 246.045ZM328.096 246.045C326.008 246.045 324.208 245.673 322.696 244.929C321.208 244.161 320.056 243.093 319.24 241.725C318.448 240.333 318.052 238.701 318.052 236.829C318.052 235.005 318.436 233.409 319.204 232.041C319.972 230.649 321.04 229.569 322.408 228.801C323.8 228.009 325.372 227.613 327.124 227.613C328.396 227.613 329.548 227.829 330.58 228.261C331.612 228.669 332.5 229.269 333.244 230.061C333.988 230.829 334.552 231.777 334.936 232.905C335.32 234.009 335.512 235.245 335.512 236.613C335.512 237.069 335.368 237.417 335.08 237.657C334.792 237.873 334.372 237.981 333.82 237.981H322.516V235.173H331.588L331.012 235.677C331.012 234.693 330.868 233.877 330.58 233.229C330.292 232.557 329.872 232.053 329.32 231.717C328.792 231.381 328.132 231.213 327.34 231.213C326.452 231.213 325.696 231.417 325.072 231.825C324.448 232.233 323.968 232.821 323.632 233.589C323.296 234.357 323.128 235.281 323.128 236.361V236.649C323.128 238.473 323.548 239.817 324.388 240.681C325.252 241.545 326.524 241.977 328.204 241.977C328.78 241.977 329.44 241.905 330.184 241.761C330.928 241.617 331.624 241.389 332.272 241.077C332.824 240.813 333.316 240.729 333.748 240.825C334.18 240.897 334.516 241.089 334.756 241.401C334.996 241.713 335.128 242.073 335.152 242.481C335.2 242.889 335.116 243.297 334.9 243.705C334.684 244.089 334.324 244.413 333.82 244.677C333.004 245.133 332.08 245.469 331.048 245.685C330.04 245.925 329.056 246.045 328.096 246.045ZM347.244 246.045C345.588 246.045 344.196 245.769 343.068 245.217C341.964 244.665 341.136 243.861 340.584 242.805C340.056 241.749 339.792 240.417 339.792 238.809V232.041H338.28C337.608 232.041 337.08 231.861 336.696 231.501C336.336 231.141 336.156 230.649 336.156 230.025C336.156 229.353 336.336 228.849 336.696 228.513C337.08 228.153 337.608 227.973 338.28 227.973H339.792V225.237C339.792 224.325 340.032 223.641 340.512 223.185C340.992 222.705 341.664 222.465 342.528 222.465C343.416 222.465 344.088 222.705 344.544 223.185C345 223.641 345.228 224.325 345.228 225.237V227.973H348.648C349.32 227.973 349.836 228.153 350.196 228.513C350.556 228.849 350.736 229.353 350.736 230.025C350.736 230.649 350.556 231.141 350.196 231.501C349.836 231.861 349.32 232.041 348.648 232.041H345.228V238.593C345.228 239.601 345.456 240.357 345.912 240.861C346.392 241.365 347.148 241.617 348.18 241.617C348.54 241.617 348.876 241.581 349.188 241.509C349.5 241.437 349.788 241.389 350.052 241.365C350.388 241.341 350.664 241.449 350.88 241.689C351.096 241.905 351.204 242.397 351.204 243.165C351.204 243.741 351.108 244.245 350.916 244.677C350.724 245.109 350.388 245.421 349.908 245.613C349.596 245.733 349.164 245.829 348.612 245.901C348.084 245.997 347.628 246.045 347.244 246.045ZM362.127 246.045C360.039 246.045 358.239 245.673 356.727 244.929C355.239 244.161 354.087 243.093 353.271 241.725C352.479 240.333 352.083 238.701 352.083 236.829C352.083 235.005 352.467 233.409 353.235 232.041C354.003 230.649 355.071 229.569 356.439 228.801C357.831 228.009 359.403 227.613 361.155 227.613C362.427 227.613 363.579 227.829 364.611 228.261C365.643 228.669 366.531 229.269 367.275 230.061C368.019 230.829 368.583 231.777 368.967 232.905C369.351 234.009 369.543 235.245 369.543 236.613C369.543 237.069 369.399 237.417 369.111 237.657C368.823 237.873 368.403 237.981 367.851 237.981H356.547V235.173H365.619L365.043 235.677C365.043 234.693 364.899 233.877 364.611 233.229C364.323 232.557 363.903 232.053 363.351 231.717C362.823 231.381 362.163 231.213 361.371 231.213C360.483 231.213 359.727 231.417 359.103 231.825C358.479 232.233 357.999 232.821 357.663 233.589C357.327 234.357 357.159 235.281 357.159 236.361V236.649C357.159 238.473 357.579 239.817 358.419 240.681C359.283 241.545 360.555 241.977 362.235 241.977C362.811 241.977 363.471 241.905 364.215 241.761C364.959 241.617 365.655 241.389 366.303 241.077C366.855 240.813 367.347 240.729 367.779 240.825C368.211 240.897 368.547 241.089 368.787 241.401C369.027 241.713 369.159 242.073 369.183 242.481C369.231 242.889 369.147 243.297 368.931 243.705C368.715 244.089 368.355 244.413 367.851 244.677C367.035 245.133 366.111 245.469 365.079 245.685C364.071 245.925 363.087 246.045 362.127 246.045ZM379.581 246.045C378.045 246.045 376.689 245.673 375.513 244.929C374.361 244.185 373.461 243.117 372.813 241.725C372.165 240.333 371.841 238.689 371.841 236.793C371.841 234.897 372.165 233.265 372.813 231.897C373.461 230.529 374.361 229.473 375.513 228.729C376.689 227.985 378.045 227.613 379.581 227.613C380.973 227.613 382.197 227.949 383.253 228.621C384.333 229.293 385.065 230.169 385.449 231.249H385.053V222.717C385.053 221.805 385.281 221.121 385.737 220.665C386.193 220.185 386.865 219.945 387.753 219.945C388.617 219.945 389.289 220.185 389.769 220.665C390.249 221.121 390.489 221.805 390.489 222.717V243.201C390.489 244.089 390.249 244.773 389.769 245.253C389.313 245.733 388.653 245.973 387.789 245.973C386.925 245.973 386.253 245.733 385.773 245.253C385.317 244.773 385.089 244.089 385.089 243.201V240.753L385.485 242.157C385.149 243.333 384.429 244.281 383.325 245.001C382.245 245.697 380.997 246.045 379.581 246.045ZM381.201 241.977C381.993 241.977 382.677 241.785 383.253 241.401C383.829 241.017 384.285 240.453 384.621 239.709C384.957 238.941 385.125 237.969 385.125 236.793C385.125 235.041 384.765 233.757 384.045 232.941C383.325 232.101 382.377 231.681 381.201 231.681C380.433 231.681 379.749 231.861 379.149 232.221C378.573 232.581 378.117 233.145 377.781 233.913C377.469 234.657 377.313 235.617 377.313 236.793C377.313 238.545 377.673 239.853 378.393 240.717C379.113 241.557 380.049 241.977 381.201 241.977ZM397.306 237.837C396.754 237.837 396.322 237.669 396.01 237.333C395.698 236.997 395.506 236.505 395.434 235.857L394.282 223.545C394.162 222.465 394.366 221.601 394.894 220.953C395.422 220.281 396.226 219.945 397.306 219.945C398.338 219.945 399.118 220.281 399.646 220.953C400.174 221.601 400.378 222.465 400.258 223.545L399.106 235.857C399.034 236.505 398.842 236.997 398.53 237.333C398.242 237.669 397.834 237.837 397.306 237.837ZM397.306 245.829C396.346 245.829 395.578 245.541 395.002 244.965C394.45 244.389 394.174 243.645 394.174 242.733C394.174 241.845 394.45 241.125 395.002 240.573C395.578 239.997 396.346 239.709 397.306 239.709C398.266 239.709 399.01 239.997 399.538 240.573C400.09 241.125 400.366 241.845 400.366 242.733C400.366 243.645 400.09 244.389 399.538 244.965C399.01 245.541 398.266 245.829 397.306 245.829Z" fill="black"/>
</svg>
